<?xml version="1.0" encoding="utf-8"?>
<!-- Generator: Adobe Illustrator 25.0.0, SVG Export Plug-In . SVG Version: 6.00 Build 0)  -->
<svg version="1.1" id="Layer_1" xmlns="http://www.w3.org/2000/svg" xmlns:xlink="http://www.w3.org/1999/xlink" x="0px" y="0px"
	 viewBox="0 0 1366 768" style="enable-background:new 0 0 1366 768;" xml:space="preserve">
<style type="text/css">
	.st0{fill:#D168FF;}
	.st1{fill:#6B0DC5;}
</style>
<circle id="Ellipse_35" class="st0" cx="1060.4" cy="487.9" r="49"/>
<circle id="Ellipse_49" class="st0" cx="1013.4" cy="69.9" r="70"/>
<path id="Path_448" class="st1" d="M1505.4,357.9c-31.9,90.9-35.2,218.8-218.7,273.9s-109.6,157-35.5,246.3s261.4,220,331.9,110.9
	s0-631,0-631S1537.2,267,1505.4,357.9z"/>
<path id="Path_447" class="st0" d="M-15.3,157.5c91.9,27.8,102.5,81.7,104.4,118.4s-33.1,79.7,63.8,142s-8.1,208.8-8.1,208.8
	S65.1,717.7,6,696.9s-50.7-20-50.7-20L-15.3,157.5z"/>
<circle id="Ellipse_29" class="st1" cx="116.4" cy="97.9" r="42"/>
<circle id="Ellipse_34" class="st1" cx="1247.4" cy="275.9" r="27"/>
<circle id="Ellipse_50" class="st1" cx="770.4" cy="236.9" r="27"/>
</svg>
