<?xml version="1.0" encoding="utf-8"?>
<!-- Generator: Adobe Illustrator 25.0.0, SVG Export Plug-In . SVG Version: 6.00 Build 0)  -->
<svg version="1.1" id="Layer_1" xmlns="http://www.w3.org/2000/svg" xmlns:xlink="http://www.w3.org/1999/xlink" x="0px" y="0px"
	 viewBox="0 0 612 792" style="enable-background:new 0 0 612 792;" xml:space="preserve">
<style type="text/css">
	.st0{fill:#66439A;}
	.st1{fill:#FBFCFD;}
	.st2{fill:#A773B1;}
</style>
<g id="cool" transform="translate(-0.685 -0.041)">
	<path id="Path_20" class="st0" d="M498.7,405c0,110.5-89.5,200-200,200s-200-89.5-200-200s89.5-200,200-200
		C409.1,205,498.7,294.5,498.7,405L498.7,405z"/>
	<path id="Path_21" class="st1" d="M333.6,322.2c-11.4,3.3-23.1,5.1-34.9,5c-11.9,0.1-23.6-1.7-34.9-5c-30.3-8.8-61.7-13-93.1-12.6
		c-19.9,0.7-39.7,2.8-59.2,6.4c-6.2,1.3-10.2,7.4-9,13.6l1.7,6.7c1.2,3.7,4,6.7,7.6,8c2.1,0.7,3.7,2.1,4.6,4
		c2.6,7,16.3,47.5,23.9,62.9c6,12.4,22.6,22.9,61.6,22.9c54.9,0.3,74.2-36.3,82.8-59.6c1-2.4,2.4-7.4,3.6-11.7
		c1.1-5.3,3.7-10.2,7.6-14c1-0.7,2.2-1,3.3-1c1.3,0,2.5,0.4,3.6,1c3.6,3.9,6.2,8.7,7.4,14c1.4,4.7,2.6,9.3,3.6,11.7
		c8.6,23.6,27.9,59.9,82.8,59.6c38.6,0,55.2-10.7,61.6-22.9c7.6-15,21.3-55.9,23.9-62.9c0.8-2.1,2.5-3.5,4.7-4
		c3.7-1.2,6.7-4.2,7.6-8l1.7-6.7c1.4-6.1-2.4-12.2-8.4-13.5c-0.2,0-0.3-0.1-0.5-0.1c-19.5-3.8-39.3-6-59.2-6.4
		c-31.6-0.6-62.9,3.6-93.1,12.6L333.6,322.2z"/>
	<path id="Path_22" class="st2" d="M324.7,358.7c1,26.7,27,52.3,51.3,58.2c35.6,8.6,62.5,1,77.8-32c4.7-10,14.3-31.6,13.6-42.9
		c-1-20-26.7-16.7-42.5-17C423.1,325.2,323,322.2,324.7,358.7z M274.1,358.7c-1,26.7-27,52.3-51.6,58.2c-35.6,8.6-62.5,1-77.8-32
		c-4.7-10-14.3-31.7-13.6-42.9c1-20,26.7-16.7,42.5-17c1.7,0,101.9-3,100.2,33.6H274.1z"/>
	<path id="Path_23" class="st1" d="M341.2,507.2c-5.5,0-10.9-0.4-16.3-1.4c-5.3-0.8-8.9-5.8-8.1-11.1c0.8-5.2,5.6-8.8,10.8-8.1
		c31,4.6,58.5-7,70.2-30c2.5-4.9,8.4-6.8,13.3-4.3c4.9,2.5,6.8,8.4,4.3,13.3C400.7,492.5,371.9,508.6,341.2,507.2z"/>
</g>
</svg>
