<?xml version="1.0" encoding="utf-8"?>
<!-- Generator: Adobe Illustrator 25.0.0, SVG Export Plug-In . SVG Version: 6.00 Build 0)  -->
<svg version="1.1" id="Layer_1" xmlns="http://www.w3.org/2000/svg" xmlns:xlink="http://www.w3.org/1999/xlink" x="0px" y="0px"
	 viewBox="0 0 612 792" style="enable-background:new 0 0 612 792;" xml:space="preserve">
<style type="text/css">
	.st0{fill:#66439A;}
	.st1{fill:#FBFCFD;}
	.st2{fill:#A773B1;}
</style>
<g id="nerd-face_1_" transform="translate(-36.5 -36.499)">
	<path id="Path_24" class="st0" d="M555.6,412.9c0,110.4-89.6,200-200,200s-200-89.6-200-200s89.6-200,200-200
		S555.6,302.5,555.6,412.9L555.6,412.9z"/>
	<path id="Path_25" class="st0" d="M371.2,611c-8.6,1.2-17.2,1.9-25.9,1.9c-104.8,0-189.7-89.6-189.7-200
		c-0.2-57.2,23.3-111.7,65.1-150.8c40.4-37.7,95.8-55.1,150.5-47.4c-93.8,13.6-163.8,98.3-163.8,198.1S277.4,597.4,371.2,611z"/>
	<path id="Path_26" class="st1" d="M463.1,469.6c3.2-1,6.7-0.4,9.3,1.7c2.5,1.9,3.6,5.2,2.9,8.2c-0.7,2.9-1.5,5.6-2.6,8.4
		c-6.2,15.5-16.8,28.8-30.4,38.4c-10.9,7.9-23.1,14-36,18.1c-15.4,4.9-31.4,7.4-47.5,7.3h-6.6c-16.1,0.1-32.2-2.4-47.5-7.3
		c-32.3-10.5-56.9-31.2-66.4-56.5c-1-2.7-1.9-5.5-2.6-8.4c-0.7-3.1,0.5-6.3,2.9-8.2c2.6-2.1,6.1-2.7,9.3-1.7
		c24.9,7.8,50.6,12.7,76.5,14.8c9.8,0.9,20.2,1.3,31,1.3h1.4c10.5,0,20.5-0.5,29.9-1.3C412.8,482.2,438.3,477.3,463.1,469.6
		L463.1,469.6z"/>
	<path id="Path_27" class="st1" d="M331.2,544.4c-27.8-8.7-50.1-29.4-60.7-56.5c-0.9-2.7-1.7-5.5-2.3-8.4c-0.4-1.8-0.2-3.6,0.5-5.2
		c-5.6-1.6-10.7-3.2-15.2-4.7s-9.5,0.9-10.9,5.4c-0.5,1.5-0.6,3-0.3,4.6c0.6,2.8,1.4,5.6,2.3,8.4c10.6,27.1,33,47.8,60.7,56.5
		c14,4.9,28.7,7.4,43.5,7.3h6c3.3,0,6.7-0.2,9.9-0.4C353.3,550.6,342,548.2,331.2,544.4z"/>
	<path id="Path_28" class="st0" d="M396.7,315.5c6.1-7.6,15.4-12,25.2-12h98.9c0.9,0,1.7,0,2.6,0.1c12.1,17.9,21,37.7,26.4,58.6
		l-3.6,25.9c-4.1,28.8-28.7,50.1-57.8,50.1h-30.6c-27.5-0.1-51.3-19.3-57.1-46.2l-10.5-49.5C388.1,333,390.5,323.1,396.7,315.5z"/>
	<rect id="Rectangle_7" x="303.3" y="297.5" class="st1" width="106.3" height="38"/>
	<path id="Path_29" class="st2" d="M486.4,420.9h-30.6c-24.5,0-45.6-17.1-50.7-41l-10.5-49.5c-2.9-14,6-27.8,20-30.8
		c1.8-0.4,3.6-0.5,5.4-0.5h98.9c14.3,0,25.9,11.6,25.9,25.9c0,1.2-0.1,2.4-0.2,3.6l-6.7,47.7C534.1,401.9,512.2,420.9,486.4,420.9z"
		/>
	<path id="Path_31" class="st0" d="M314.7,315.5c-6.1-7.6-15.4-12-25.2-12h-98.9c-0.9,0-1.7,0-2.6,0.1c-12.1,17.9-21,37.7-26.4,58.6
		l3.6,25.9c4.1,28.8,28.7,50.1,57.8,50.1h30.6c27.5-0.1,51.3-19.3,57.1-46.2l10.5-49.5C323.2,333.1,320.8,323.1,314.7,315.5z"/>
	<path id="Path_32" class="st1" d="M486.4,427.2h-30.6c-27.5-0.1-51.2-19.3-57.1-46.2l-10.5-49.5c-3.7-17.5,7.4-34.7,25-38.5
		c2.2-0.5,4.5-0.7,6.7-0.7h98.9c17.9,0,32.4,14.5,32.4,32.4c0,1.6-0.1,3-0.3,4.6l-6.7,47.7C540.1,405.8,515.5,427.2,486.4,427.2
		L486.4,427.2z M420,305.3c-10.7,0-19.5,8.7-19.5,19.5c0,1.4,0.2,2.7,0.5,4l10.5,49.5c4.5,20.9,23,35.8,44.4,35.9h30.6
		c22.6-0.1,41.6-16.7,44.9-39l6.7-47.7c1.5-10.6-5.9-20.5-16.5-21.9c-0.9-0.2-1.8-0.2-2.7-0.2L420,305.3z"/>
	<path id="Path_33" class="st1" d="M401.2,380.9l-10.5-49.5c-3.7-17.5,7.4-34.7,25-38.5c2.2-0.5,4.5-0.7,6.7-0.7h-8.7
		c-17.9,0-32.4,14.5-32.4,32.4c0,2.2,0.2,4.5,0.7,6.7l10.5,49.5c5.8,26.9,29.5,46.1,57.1,46.2h8.7
		C430.7,427,407.1,407.9,401.2,380.9z"/>
	<path id="Path_34" class="st2" d="M225.7,420.9h30.6c24.5,0,45.6-17.1,50.7-41l10.5-49.5c2.9-14-6-27.8-20-30.8
		c-1.8-0.4-3.6-0.5-5.4-0.5h-98.9c-14.3,0-25.9,11.6-25.9,25.9c0,1.2,0.1,2.4,0.2,3.6l6.7,47.7C177.9,401.9,199.9,420.9,225.7,420.9
		L225.7,420.9z"/>
	<path id="Path_36" class="st1" d="M256.3,427.2h-30.6c-29,0-53.7-21.4-57.7-50.2l-6.7-47.7c-2.5-17.7,9.8-34.1,27.5-36.6
		c1.5-0.2,3-0.3,4.6-0.3h98.8c17.9,0,32.4,14.5,32.4,32.4c0,2.2-0.2,4.5-0.7,6.7l-10.6,49.4C307.4,407.9,283.7,427,256.3,427.2
		L256.3,427.2z M193.2,305.3c-10.7,0-19.5,8.7-19.5,19.5c0,0.9,0.1,1.9,0.2,2.7l6.7,47.7c3.3,22.3,22.3,38.9,44.9,39h30.6
		c21.4-0.1,39.9-15,44.4-35.9l10.5-49.5c2.2-10.5-4.5-20.9-15-23c-1.3-0.3-2.7-0.4-4-0.4L193.2,305.3z"/>
	<path id="Path_37" class="st1" d="M176.6,377l-6.7-47.7c-2.5-17.7,9.8-34.1,27.5-36.6c1.5-0.2,3-0.3,4.6-0.3h-8.7
		c-17.9,0-32.4,14.5-32.4,32.4c0,1.6,0.1,3,0.3,4.6l6.7,47.7c4.1,28.8,28.7,50.2,57.8,50.2h8.6C205.2,427.2,180.6,405.8,176.6,377
		L176.6,377z"/>
	<path id="Path_38" class="st2" d="M384.3,482.8l-0.6,17.7c0,7.1-5.8,13-13,13l0,0h-31.1c-7.1,0-13-5.8-13-13l0,0l0.6-17.6
		c9,0.9,18.5,1.3,28.4,1.3h1.3C366.5,484.1,375.6,483.6,384.3,482.8z"/>
	<path id="Path_39" class="st0" d="M343.1,500.5l0.5-16.5c-5.9-0.2-11.7-0.5-17.2-1.1l-0.6,17.6c0,7.1,5.8,13,13,13l0,0h17.3
		C348.9,513.4,343.1,507.6,343.1,500.5L343.1,500.5L343.1,500.5z"/>
</g>
</svg>
