<?xml version="1.0" encoding="utf-8"?>
<!-- Generator: Adobe Illustrator 25.0.0, SVG Export Plug-In . SVG Version: 6.00 Build 0)  -->
<svg version="1.1" id="Layer_1" xmlns="http://www.w3.org/2000/svg" xmlns:xlink="http://www.w3.org/1999/xlink" x="0px" y="0px"
	 viewBox="0 0 148 107" style="enable-background:new 0 0 148 107;" xml:space="preserve">
<style type="text/css">
	.st0{fill:#6B0DC5;}
	.st1{fill:none;stroke:#000000;stroke-width:2;stroke-linecap:round;stroke-miterlimit:10;}
	.st2{fill:none;}
</style>
<path id="Path_13_1_" class="st0" d="M71.4,45.8L32.2,7.7l53.8,9.5l39.2,38.1L71.4,45.8z"/>
<path id="Path_14_1_" class="st1" d="M121.2,56.5v28.3"/>
<path id="Path_15_1_" class="st0" d="M129.3,88.8c0,4.5-8.1,16.2-8.1,16.2s-8.1-11.7-8.1-16.2c0-4.5,3.6-8.1,8.1-8.1
	C125.7,80.7,129.3,84.4,129.3,88.8z"/>
<path id="Path_16_1_" class="st2" d="M71.4,45.8L32.2,7.7l53.8,9.5l39.2,38.1L71.4,45.8z"/>
<path id="Path_17_1_" class="st0" d="M69.3,57.7c-2.4-0.4-4.6-1.6-6.4-3.3L40.7,32.8L29.9,54c0,0,12.7,6.5,25.4,23.7
	c21.3,0.2,34,6.7,34,6.7l10.8-21.2L69.3,57.7z"/>
</svg>
