<?xml version="1.0" encoding="utf-8"?>
<!-- Generator: Adobe Illustrator 25.0.0, SVG Export Plug-In . SVG Version: 6.00 Build 0)  -->
<svg version="1.1" id="Layer_1" xmlns="http://www.w3.org/2000/svg" xmlns:xlink="http://www.w3.org/1999/xlink" x="0px" y="0px"
	 viewBox="0 0 1366 768" style="enable-background:new 0 0 1366 768;" xml:space="preserve">
<style type="text/css">
	.st0{fill:#6B0DC5;}
	.st1{fill:url(#Path_297_1_);}
	.st2{fill:url(#Path_298_1_);}
	.st3{fill:url(#Ellipse_1_1_);}
	.st4{fill:url(#Ellipse_2_1_);}
	.st5{fill:url(#Ellipse_3_1_);}
	.st6{fill:url(#Ellipse_4_1_);}
	.st7{fill:#FDE1A7;}
	.st8{fill:#DABACC;}
	.st9{fill:url(#Ellipse_5_1_);}
	.st10{fill:#0090B2;}
	.st11{fill:#8A69E3;}
	.st12{fill:url(#Path_305_1_);}
	.st13{fill:url(#Path_306_1_);}
	.st14{fill:url(#Path_307_1_);}
	.st15{fill:#4578BA;}
	.st16{fill:url(#Path_311_1_);}
	.st17{fill:url(#Path_312_1_);}
	.st18{fill:url(#Path_313_1_);}
	.st19{fill:url(#Path_314_1_);}
	.st20{fill:url(#Path_315_1_);}
	.st21{fill:#C0EAFB;}
	.st22{fill:url(#Path_317_1_);}
	.st23{fill:url(#Path_318_1_);}
	.st24{fill:url(#Ellipse_7_1_);}
	.st25{fill:url(#Ellipse_8_1_);}
	.st26{fill:url(#Ellipse_9_1_);}
	.st27{fill:url(#Path_320_1_);}
	.st28{fill:#E8878E;}
	.st29{fill:url(#Path_324_1_);}
	.st30{fill:#FFA2BA;}
	.st31{fill:url(#Path_328_1_);}
	.st32{fill:url(#Path_329_1_);}
	.st33{fill:url(#Path_330_1_);}
	.st34{fill:url(#Path_331_1_);}
	.st35{fill:url(#Path_332_1_);}
	.st36{fill:#00E2EC;}
	.st37{fill:url(#Path_334_1_);}
	.st38{fill:url(#Path_335_1_);}
	.st39{fill:url(#Path_337_1_);}
	.st40{fill:url(#Path_338_1_);}
	.st41{fill:url(#Path_340_1_);}
	.st42{fill:#D039A3;}
	.st43{fill:url(#Path_342_1_);}
	.st44{fill:url(#Path_343_1_);}
	.st45{fill:url(#Path_344_1_);}
	.st46{fill:#212F66;}
	.st47{fill:url(#Path_345_1_);}
	.st48{opacity:0.5;}
	.st49{fill:#FFFFFF;}
	.st50{fill:url(#Path_348_1_);}
	.st51{fill:url(#Path_350_1_);}
	.st52{fill:url(#Path_351_1_);}
	.st53{fill:url(#Path_355_1_);}
	.st54{fill:url(#Path_356_1_);}
	.st55{fill:url(#Path_357_1_);}
	.st56{fill:url(#Path_358_1_);}
	.st57{fill:url(#Path_359_1_);}
	.st58{fill:#9F36AD;}
	.st59{fill:url(#Path_361_1_);}
	.st60{fill:url(#Path_362_1_);}
	.st61{fill:url(#Path_363_1_);}
	.st62{fill:url(#Path_364_1_);}
	.st63{fill:url(#Path_365_1_);}
	.st64{fill:url(#Path_366_1_);}
	.st65{fill:url(#Path_367_1_);}
	.st66{fill:url(#Ellipse_14_1_);}
	.st67{fill:url(#Ellipse_15_1_);}
	.st68{fill:url(#Path_368_1_);}
	.st69{fill:url(#Path_369_1_);}
	.st70{fill:url(#Path_370_1_);}
	.st71{fill:url(#Path_371_1_);}
	.st72{fill:url(#Path_372_1_);}
	.st73{fill:url(#Path_373_1_);}
	.st74{fill:url(#Path_374_1_);}
	.st75{fill:url(#Path_375_1_);}
	.st76{fill:url(#Path_376_1_);}
	.st77{fill:url(#Path_377_1_);}
	.st78{fill:url(#Path_378_1_);}
	.st79{fill:url(#Ellipse_16_1_);}
	.st80{fill:url(#Path_379_1_);}
	.st81{fill:url(#Path_380_1_);}
	.st82{fill:url(#Path_381_1_);}
	.st83{fill:url(#Path_382_1_);}
	.st84{fill:url(#Path_383_1_);}
	.st85{fill:url(#Path_384_1_);}
	.st86{fill:url(#Path_385_1_);}
	.st87{fill:url(#Path_386_1_);}
	.st88{fill:url(#Path_387_1_);}
	.st89{fill:url(#Path_388_1_);}
	.st90{fill:#954374;}
	.st91{fill:url(#Path_390_1_);}
	.st92{fill:url(#Path_391_1_);}
	.st93{fill:url(#Path_392_1_);}
	.st94{fill:url(#Path_393_1_);}
	.st95{fill:url(#Path_394_1_);}
	.st96{fill:url(#Path_395_1_);}
	.st97{fill:url(#Path_396_1_);}
	.st98{fill:url(#Path_397_1_);}
	.st99{fill:url(#Path_398_1_);}
	.st100{fill:url(#Path_399_1_);}
	.st101{fill:#C7A0F6;}
	.st102{fill:#FE697A;}
	.st103{fill:none;}
	.st104{fill:url(#Path_407_1_);}
	.st105{fill:#C44B5F;}
	.st106{fill:url(#Path_411_1_);}
	.st107{fill:#D66976;}
	.st108{fill:url(#Path_415_1_);}
	.st109{fill:url(#Path_419_1_);}
	.st110{fill:url(#Path_437_1_);}
</style>
<circle id="Ellipse_52" class="st0" cx="1321.2" cy="681.5" r="75.5"/>
<g id="subscribe-2103909-0" transform="translate(-50.985 -35.904)">
	<g id="background">
		
			<linearGradient id="Path_297_1_" gradientUnits="userSpaceOnUse" x1="687.0895" y1="572.4154" x2="687.7245" y2="571.4564" gradientTransform="matrix(795.1272 0 0 -526.7263 -546138.75 301643.8125)">
			<stop  offset="0" style="stop-color:#A340FB"/>
			<stop  offset="1" style="stop-color:#280748"/>
		</linearGradient>
		<path id="Path_297" class="st1" d="M437.2,76c52.2,1.8,77.1,8.8,129.5,56c39.8,35.9,48.5,51.5,82,66.5
			c24.2,10.8,148,32.5,179.5,133c33.4,106.7-1.3,201.8-84,244.5c-91,47-162.6,7-205-11c-59-25-83-35.8-183,14.5
			c-93.5,47-197,19.5-257.5-56.5c-57.1-71.7-78.1-204.8-12-286.5c55.7-68.8,119.5-48,172-74.5C300.2,141.1,349.7,73,437.2,76z"/>
		
			<radialGradient id="Path_298_1_" cx="676.9113" cy="577.6782" r="1.843" gradientTransform="matrix(73.9719 6.7604 3.4141 -37.7395 -51445.1133 17818.5156)" gradientUnits="userSpaceOnUse">
			<stop  offset="0" style="stop-color:#FFFFFF;stop-opacity:0.302"/>
			<stop  offset="0.292" style="stop-color:#FDFDFE;stop-opacity:0.212"/>
			<stop  offset="0.434" style="stop-color:#F5F8FB;stop-opacity:0.169"/>
			<stop  offset="0.544" style="stop-color:#E8EEF6;stop-opacity:0.137"/>
			<stop  offset="0.637" style="stop-color:#D6DFEF;stop-opacity:0.11"/>
			<stop  offset="0.72" style="stop-color:#BDCDE6;stop-opacity:8.200000e-02"/>
			<stop  offset="0.795" style="stop-color:#A0B6DB;stop-opacity:6.300000e-02"/>
			<stop  offset="0.865" style="stop-color:#7C9BCE;stop-opacity:3.900000e-02"/>
			<stop  offset="0.93" style="stop-color:#537CBE;stop-opacity:2.000000e-02"/>
			<stop  offset="0.989" style="stop-color:#265AAD;stop-opacity:4.000000e-03"/>
			<stop  offset="1" style="stop-color:#1D53AA;stop-opacity:0"/>
		</radialGradient>
		<path id="Path_298" class="st2" d="M589.4,523.7c-32.4,0-64.2,8.6-92.1,25.2c12.9,3.8,26.1,9.4,41.9,16.1
			c39.4,16.7,103.9,52.4,185.7,19.8C690.6,545.9,641.3,523.7,589.4,523.7z"/>
		
			<radialGradient id="Ellipse_1_1_" cx="676.5228" cy="576.1777" r="0.5" gradientTransform="matrix(69.33 0 0 -69.33 -46141.8867 40275.0977)" gradientUnits="userSpaceOnUse">
			<stop  offset="0" style="stop-color:#FFFFFF;stop-opacity:0.251"/>
			<stop  offset="0.294" style="stop-color:#FDFDFE;stop-opacity:0.176"/>
			<stop  offset="0.437" style="stop-color:#F6F5FA;stop-opacity:0.141"/>
			<stop  offset="0.547" style="stop-color:#EAE8F2;stop-opacity:0.114"/>
			<stop  offset="0.641" style="stop-color:#D9D6E8;stop-opacity:9.000000e-02"/>
			<stop  offset="0.724" style="stop-color:#C3BDDA;stop-opacity:7.100000e-02"/>
			<stop  offset="0.8" style="stop-color:#A8A0CA;stop-opacity:5.100000e-02"/>
			<stop  offset="0.87" style="stop-color:#887CB6;stop-opacity:3.100000e-02"/>
			<stop  offset="0.935" style="stop-color:#63549F;stop-opacity:1.600000e-02"/>
			<stop  offset="0.995" style="stop-color:#3A2685;stop-opacity:0"/>
			<stop  offset="1" style="stop-color:#362283;stop-opacity:0"/>
		</radialGradient>
		<circle id="Ellipse_1" class="st3" cx="761.4" cy="328.7" r="34.7"/>
		
			<radialGradient id="Ellipse_2_1_" cx="676.4084" cy="576.224" r="0.4995" gradientTransform="matrix(68.666 0 0 -68.666 -46344.1172 39875.6914)" gradientUnits="userSpaceOnUse">
			<stop  offset="0" style="stop-color:#FFFFFF;stop-opacity:0.251"/>
			<stop  offset="0.321" style="stop-color:#FDFDFF;stop-opacity:0.169"/>
			<stop  offset="0.477" style="stop-color:#F6F5FD;stop-opacity:0.129"/>
			<stop  offset="0.597" style="stop-color:#E9E8FA;stop-opacity:0.102"/>
			<stop  offset="0.7" style="stop-color:#D8D6F6;stop-opacity:7.500000e-02"/>
			<stop  offset="0.79" style="stop-color:#C1BDF1;stop-opacity:5.100000e-02"/>
			<stop  offset="0.873" style="stop-color:#A5A0EB;stop-opacity:3.100000e-02"/>
			<stop  offset="0.947" style="stop-color:#847DE4;stop-opacity:1.200000e-02"/>
			<stop  offset="1" style="stop-color:#6860DE;stop-opacity:0"/>
		</radialGradient>
		<circle id="Ellipse_2" class="st4" cx="102.1" cy="308.7" r="34.3"/>
		
			<linearGradient id="Ellipse_3_1_" gradientUnits="userSpaceOnUse" x1="669.5812" y1="579.1682" x2="670.2891" y2="578.4602" gradientTransform="matrix(44.666 0 0 -44.666 -29821.1992 26161.998)">
			<stop  offset="0" style="stop-color:#FFE2A8"/>
			<stop  offset="1" style="stop-color:#271068"/>
		</linearGradient>
		<circle id="Ellipse_3" class="st5" cx="102.1" cy="308.7" r="22.3"/>
		
			<linearGradient id="Ellipse_4_1_" gradientUnits="userSpaceOnUse" x1="669.5812" y1="579.1682" x2="670.2891" y2="578.4602" gradientTransform="matrix(44.666 0 0 -44.666 -29821.1992 26161.998)">
			<stop  offset="0" style="stop-color:#FFE2A8"/>
			<stop  offset="1" style="stop-color:#A482FF"/>
		</linearGradient>
		<circle id="Ellipse_4" class="st6" cx="102.1" cy="308.7" r="22.3"/>
		<g id="Group_208">
			<path id="Path_299" class="st7" d="M94.6,310.5c-3.1,0-5.7-2.5-5.7-5.7s2.5-5.7,5.7-5.7s5.7,2.5,5.7,5.7l0,0
				C100.2,308,97.7,310.5,94.6,310.5z M94.6,300.2c-2.6,0-4.7,2.1-4.7,4.7s2.1,4.7,4.7,4.7s4.7-2.1,4.7-4.7l0,0
				C99.2,302.3,97.1,300.2,94.6,300.2z"/>
		</g>
		<g id="Group_209">
			<path id="Path_300" class="st8" d="M110.9,323.9c-2,0.1-3.8-0.9-5-2.5c-1.8-2.8-0.6-6.8,2.8-9c1.3-0.9,2.8-1.3,4.4-1.3
				c2-0.1,3.8,0.9,5,2.5c1.8,2.8,0.6,6.8-2.8,9C114,323.4,112.5,323.9,110.9,323.9z M113.1,312.1c-1.4,0-2.7,0.4-3.8,1.2
				c-2.9,1.9-4,5.3-2.5,7.6c0.9,1.3,2.5,2.1,4.1,2c1.4,0,2.7-0.4,3.8-1.2c2.9-1.9,4-5.3,2.5-7.6C116.3,312.8,114.8,312,113.1,312.1z
				"/>
		</g>
		<g id="Group_210">
			<path id="Path_301" class="st7" d="M87.3,325.6l-0.6-0.8c1.2-0.9,1.9-2.3,1.9-3.8c0-2.6-2.1-4.7-4.6-4.7c-0.9,0-1.8,0.3-2.5,0.7
				l-0.5-0.8c2.6-1.7,6.1-0.9,7.8,1.7C90.4,320.5,89.8,323.8,87.3,325.6L87.3,325.6z"/>
		</g>
		<g id="Group_211">
			<path id="Path_302" class="st7" d="M114.1,296.3c-2.8,0-5-2.2-5-5c0-1.3,0.5-2.6,1.4-3.5l0.7,0.7c-1.5,1.6-1.5,4.1,0.1,5.6
				s4.1,1.5,5.6-0.1c0.3-0.3,0.6-0.7,0.8-1.1l0.9,0.4C117.8,295.1,116,296.2,114.1,296.3z"/>
		</g>
		
			<linearGradient id="Ellipse_5_1_" gradientUnits="userSpaceOnUse" x1="670.8668" y1="578.6526" x2="671.5748" y2="577.9446" gradientTransform="matrix(48 0 0 -48 -31457.1406 28087.0508)">
			<stop  offset="0" style="stop-color:#8C6AE2"/>
			<stop  offset="1" style="stop-color:#5A55F8"/>
		</linearGradient>
		<circle id="Ellipse_5" class="st9" cx="761.4" cy="328.7" r="24"/>
		<g id="Group_212">
			<path id="Path_303" class="st10" d="M783.6,338.3c-0.1,0-0.1,0-0.2,0c-3.9-1.5-10.9-6.9-17.8-13.8s-12.3-13.9-13.8-17.8
				c-0.1-0.3,0-0.5,0.3-0.7s0.5,0,0.7,0.3l0,0c1.4,3.8,6.8,10.6,13.6,17.4s13.7,12.2,17.4,13.6c0.3,0.1,0.4,0.4,0.3,0.6
				C784,338.1,783.9,338.3,783.6,338.3L783.6,338.3z"/>
		</g>
		<g id="Group_213">
			<path id="Path_304" class="st11" d="M785.4,330c-0.1,0-0.2,0-0.2-0.1c-3.7-1.9-9-6-14.1-11.2c-5-5-9.2-10.2-11.1-13.9
				c-0.1-0.2,0-0.5,0.2-0.7c0.2-0.1,0.5,0,0.7,0.2l0,0c1.9,3.6,5.9,8.7,10.9,13.7c5.1,5.1,10.2,9.2,13.9,11c0.2,0.1,0.3,0.4,0.2,0.7
				C785.8,329.9,785.6,330,785.4,330L785.4,330z"/>
		</g>
		
			<linearGradient id="Path_305_1_" gradientUnits="userSpaceOnUse" x1="683.0411" y1="577.3033" x2="684.0413" y2="577.3033" gradientTransform="matrix(168.355 0 0 -56.1252 -114463.7344 32971.1797)">
			<stop  offset="0" style="stop-color:#005092"/>
			<stop  offset="1" style="stop-color:#8C6AE2"/>
		</linearGradient>
		<path id="Path_305" class="st12" d="M596.3,541.9c-23.6,0-46.7,6.6-66.7,19c3.1,1.3,6.3,2.6,9.6,4c35,14.8,89.7,44.6,158.8,28.3
			C674.2,561,636.5,541.9,596.3,541.9z"/>
		
			<linearGradient id="Path_306_1_" gradientUnits="userSpaceOnUse" x1="678.2849" y1="577.581" x2="679.2845" y2="577.581" gradientTransform="matrix(85.5432 0 0 -53.591 -57410.1328 31524.3672)">
			<stop  offset="0" style="stop-color:#1AA9E8"/>
			<stop  offset="1" style="stop-color:#005092"/>
		</linearGradient>
		<path id="Path_306" class="st13" d="M698,593.3c-18.5-25.2-45.8-42.6-76.4-48.9c-4.9,1-9.4,3.3-9.1,8.3c0.5,9.5,15,10.4,22.3,12
			c8.3,1.8,20,5.6,20.3,11.8c0.2,4.5-5.7,5.2-8.7,5.2s-7.5-1.4-8.3,1.2c-1,3.4,6.3,4.7,5.8,7.2c-0.7,3.7-10.2,3-12.1,6.2
			C653.8,599.4,676.3,598.4,698,593.3z"/>
		
			<linearGradient id="Path_307_1_" gradientUnits="userSpaceOnUse" x1="676.6474" y1="579.761" x2="677.6478" y2="579.761" gradientTransform="matrix(73.1622 0 0 -39.603 -48975.375 23522.5703)">
			<stop  offset="0" style="stop-color:#005092"/>
			<stop  offset="1" style="stop-color:#1AA9E8"/>
		</linearGradient>
		<path id="Path_307" class="st14" d="M579.2,574.5c3-4.2,25.2-4.7,23.5-12.7c-1.4-6.9-27.7-1.7-28.8-9.5c-0.7-4.6,5.1-7.8,10.6-9.8
			c-19.5,1.8-38.3,8.1-54.9,18.5c3.1,1.3,6.3,2.6,9.6,4c11.4,4.8,24.8,11.2,40.2,17.1C578.2,579.4,577.7,576.6,579.2,574.5z"/>
		<g id="Group_214">
			<path id="Path_308" class="st15" d="M340.5,550.4c-2.8,0-5.6-0.2-8.4-0.7c-16.9-2.7-28.5-12.5-34.4-29.3
				c-9.3-26.2-1.4-63,6.1-71.5c0.2-0.2,0.5-0.2,0.7,0s0.2,0.5,0,0.7c-6.4,7.2-15.6,43.1-5.9,70.5c5.8,16.3,17.1,26,33.6,28.6
				c2.7,0.4,5.5,0.7,8.2,0.7c27.9,0,52.9-22.5,79.1-46.1c21.9-19.7,44.5-40.1,72-51.8c39.3-16.7,74.3-14.6,99.8-13.1
				c13.4,0.8,24.9,1.5,33.6-0.6c14.8-3.7,27.5-11.8,39.8-19.6c6.7-4.3,13.6-8.7,20.8-12.3c25.8-13.1,46.5-15.3,53-5.5
				c7.7,11.8-6,23-19.3,33.7c-10.8,8.7-21.9,17.8-22.3,27.2c-0.7,14.1,19.7,19.1,19.9,19.2c0.3,0.1,0.4,0.3,0.4,0.6
				c-0.1,0.3-0.3,0.4-0.6,0.4l0,0c-0.2,0-21.4-5.2-20.7-20.2c0.5-9.9,11.8-19.1,22.7-28c13.5-11,26.3-21.4,19.1-32.4
				c-6.1-9.3-26.4-7.1-51.7,5.8c-7.2,3.6-14,8-20.7,12.3c-12.3,7.9-25.1,16-40.1,19.7c-8.8,2.2-20.5,1.5-33.9,0.7
				c-25.4-1.5-60.2-3.6-99.3,13c-27.3,11.6-49.9,31.9-71.7,51.6C393.8,527.8,368.8,550.4,340.5,550.4z"/>
		</g>
		<circle id="Ellipse_6" class="st15" cx="656.5" cy="424" r="2.2"/>
		<g id="Group_215">
			<path id="Path_309" class="st15" d="M639.5,427.2c-19.5,0-45.4-8.7-59.3-36.2c-20-39.3,12.1-71.7,16.4-74.2
				c0.2-0.1,0.5-0.1,0.7,0.2c0.1,0.2,0.1,0.5-0.2,0.7c-4.2,2.4-35.6,34.2-16,72.8c18.5,36.3,58.2,39.4,75.3,32.9
				c0.3-0.1,0.5,0,0.6,0.3s0,0.5-0.3,0.6C651.2,426.4,645.3,427.3,639.5,427.2z"/>
		</g>
		<g id="Group_216">
			<path id="Path_310" class="st15" d="M744.9,415.4c-0.3,0-0.5-0.2-0.5-0.5c0-0.1,0.1-0.3,0.2-0.4c4-3.7,5-12.2,4.1-14.6
				c-0.1-0.3,0-0.5,0.3-0.6s0.5,0,0.6,0.3c1,2.6,0,11.7-4.4,15.7C745.1,415.3,745,415.4,744.9,415.4z"/>
		</g>
		
			<linearGradient id="Path_311_1_" gradientUnits="userSpaceOnUse" x1="675.0137" y1="576.6015" x2="675.2537" y2="576.8415" gradientTransform="matrix(62.1764 0 0 -62.1653 -41217.4688 36181.707)">
			<stop  offset="0" style="stop-color:#FFE2A8"/>
			<stop  offset="1" style="stop-color:#745B7F"/>
		</linearGradient>
		<path id="Path_311" class="st16" d="M791.5,352.7c-0.6-1.8-1.3-3.6-2.2-5.3c-1.7-3.2-3.7-6.3-5.9-9.2c-0.3,0.6-0.6,1.3-0.9,1.9
			c1.9,2.6,3.5,5.4,5,8.2c0.8,1.6,1.5,3.2,1.9,4.9c0.2,0.8,0.3,1.6,0.3,2.4c0.2,1.1-0.6,2.1-1.6,2.3c-0.2,0-0.5,0-0.7,0
			c-0.8,0-1.6-0.2-2.4-0.4c-1.7-0.5-3.3-1.2-4.8-2c-3.2-1.7-6.2-3.7-9.1-5.9c-5.8-4.4-11.3-9.2-16.4-14.4c-2.6-2.6-5.1-5.2-7.5-8
			s-4.7-5.5-6.9-8.4s-4.1-5.9-5.9-9.1c-0.8-1.5-1.5-3.2-2-4.8c-0.2-0.8-0.4-1.6-0.4-2.4c-0.1-0.6,0.1-1.2,0.5-1.7
			c0.8-0.8,2.6-0.7,4.2-0.3c1.7,0.5,3.3,1.1,4.9,1.9c2.9,1.5,5.6,3.1,8.2,5c0.6-0.3,1.2-0.6,1.8-0.9c-2.9-2.2-6-4.2-9.2-5.9
			c-1.7-0.9-3.4-1.7-5.3-2.2c-1-0.3-2-0.5-3-0.5c-0.6,0-1.1,0.1-1.7,0.2c-0.3,0.1-0.6,0.2-0.9,0.4c-0.2,0.1-0.3,0.2-0.4,0.3
			c-0.2,0.1-0.2,0.2-0.3,0.3l0,0l0,0c-0.8,0.9-1.3,2.1-1.2,3.3c0,1,0.1,2.1,0.4,3c0.5,1.8,1.2,3.6,2.1,5.3c1.7,3.3,3.7,6.5,5.9,9.5
			c4.4,6,9.2,11.6,14.5,16.9c5.3,5.2,10.9,10.1,16.9,14.4c3,2.2,6.2,4.2,9.5,5.9c1.7,0.9,3.5,1.6,5.3,2.1c1,0.3,2,0.4,3,0.4
			c1.2,0,2.4-0.4,3.3-1.2c0.8-0.9,1.2-2.1,1.2-3.3C792,354.7,791.8,353.7,791.5,352.7z"/>
	</g>
	<g id="spaceship">
		
			<radialGradient id="Path_312_1_" cx="674.8709" cy="536.7699" r="0.5659" gradientTransform="matrix(0.182 25.583 23.8161 -0.1791 -12150.6621 -16672.6152)" gradientUnits="userSpaceOnUse">
			<stop  offset="0" style="stop-color:#231F20"/>
			<stop  offset="0.102" style="stop-color:#262228"/>
			<stop  offset="0.264" style="stop-color:#2F2A3F"/>
			<stop  offset="0.465" style="stop-color:#3D3865"/>
			<stop  offset="0.699" style="stop-color:#504A99"/>
			<stop  offset="0.956" style="stop-color:#6962DB"/>
			<stop  offset="1" style="stop-color:#6D66E7"/>
		</radialGradient>
		<path id="Path_312" class="st17" d="M754.7,489.2l11.7-5.6c1.5,4,2.3,8.2,2.3,12.5c0,4.5-1,9-2.9,13.1l-11.1-5.6V489.2z"/>
		
			<linearGradient id="Path_313_1_" gradientUnits="userSpaceOnUse" x1="681.0746" y1="578.6622" x2="681.0746" y2="579.6622" gradientTransform="matrix(112.0875 0 0 -42.6656 -75639.7031 25208.3145)">
			<stop  offset="0" style="stop-color:#1AA9E8"/>
			<stop  offset="1" style="stop-color:#B0E1FF"/>
		</linearGradient>
		<path id="Path_313" class="st18" d="M644.2,505.8c-0.9-4.2,17.8-24.3,32.3-27.8s76.6,0.8,78,2.9s1.5,10.3,1.7,15.7
			c0.1,3.5,0.2,13.3-1.7,13.8s-46,8.7-59.5,8.8C678.5,519.5,645.5,511.6,644.2,505.8z"/>
		
			<linearGradient id="Path_314_1_" gradientUnits="userSpaceOnUse" x1="652.5673" y1="584.5449" x2="653.2863" y2="583.8939" gradientTransform="matrix(23.1671 0 0 -25.5492 -14382.4238 15399.1357)">
			<stop  offset="0" style="stop-color:#B0E1FF"/>
			<stop  offset="1" style="stop-color:#1AA9E8"/>
		</linearGradient>
		<path id="Path_314" class="st19" d="M751.4,456.7V482h-21.3c0,0-1.9-0.6-1.9-2.2c0-1.7,12-21.6,15.2-22.8
			C746,456,751.4,456.7,751.4,456.7z"/>
		
			<linearGradient id="Path_315_1_" gradientUnits="userSpaceOnUse" x1="676.3452" y1="587.0768" x2="676.8372" y2="585.5179" gradientTransform="matrix(69.6878 0 0 -22.0033 -46408.4883 13413.999)">
			<stop  offset="0" style="stop-color:#B0E1FF"/>
			<stop  offset="1" style="stop-color:#1AA9E8"/>
		</linearGradient>
		<path id="Path_315" class="st20" d="M706.4,514.4c0,0,15.4-6,21.2-8s23.5-7.2,23.5-7.2s21.9,9.1,23.8,10.6c1.2,1,1.6,3,0.8,4
			c-1.1,1.3-10.8,6.5-12.9,7.1c-2,0.5-12.8,0.4-29.5-0.9C721.2,519,705,517.8,706.4,514.4z"/>
		<g id="Group_217">
			<path id="Path_316" class="st21" d="M744.4,521.3c-0.3,0-0.5-0.2-0.5-0.5c0-0.2,0.1-0.3,0.2-0.4c5.6-3.8,20.2-10.7,27.9-12.8
				c0.3-0.1,0.5,0.1,0.6,0.3c0.1,0.3-0.1,0.5-0.3,0.6l0,0c-7.6,2.1-22,8.9-27.6,12.7C744.6,521.3,744.5,521.3,744.4,521.3z"/>
		</g>
		
			<linearGradient id="Path_317_1_" gradientUnits="userSpaceOnUse" x1="639.5027" y1="586.5133" x2="639.5027" y2="587.513" gradientTransform="matrix(16.8987 0 0 -21.206 -10154.0859 12951.5625)">
			<stop  offset="0" style="stop-color:#6D66E7"/>
			<stop  offset="4.400000e-02" style="stop-color:#6962DB"/>
			<stop  offset="0.301" style="stop-color:#504A99"/>
			<stop  offset="0.535" style="stop-color:#3D3865"/>
			<stop  offset="0.736" style="stop-color:#2F2A3F"/>
			<stop  offset="0.898" style="stop-color:#262228"/>
			<stop  offset="1" style="stop-color:#231F20"/>
		</linearGradient>
		<path id="Path_317" class="st22" d="M653.4,492.8c-5.7,5.6-9.6,11-9.2,13c0.6,2.6,7.6,5.7,16.7,8.2
			C662.2,501,657.1,495.3,653.4,492.8z"/>
		
			<linearGradient id="Path_318_1_" gradientUnits="userSpaceOnUse" x1="660.5124" y1="598.5251" x2="661.2164" y2="597.55" gradientTransform="matrix(29.94 0 0 -12.464 -19108.4824 7935.9243)">
			<stop  offset="0" style="stop-color:#6D66E7"/>
			<stop  offset="4.400000e-02" style="stop-color:#6962DB"/>
			<stop  offset="0.301" style="stop-color:#504A99"/>
			<stop  offset="0.535" style="stop-color:#3D3865"/>
			<stop  offset="0.736" style="stop-color:#2F2A3F"/>
			<stop  offset="0.898" style="stop-color:#262228"/>
			<stop  offset="1" style="stop-color:#231F20"/>
		</linearGradient>
		<path id="Path_318" class="st23" d="M687.9,488.2c2.4-1.7,3.3-7.8,3.7-11.4c-6.5,0.1-11.9,0.5-15,1.3c-4.8,1.2-10.1,4.1-14.9,7.8
			C667.3,487.6,684.1,490.8,687.9,488.2z"/>
		
			<radialGradient id="Ellipse_7_1_" cx="584.6411" cy="613.0043" r="0.879" gradientTransform="matrix(8 0 0 -8 -3981.2229 5397.7329)" gradientUnits="userSpaceOnUse">
			<stop  offset="0" style="stop-color:#231F20"/>
			<stop  offset="0.102" style="stop-color:#262228"/>
			<stop  offset="0.264" style="stop-color:#2F2A3F"/>
			<stop  offset="0.465" style="stop-color:#3D3865"/>
			<stop  offset="0.699" style="stop-color:#504A99"/>
			<stop  offset="0.956" style="stop-color:#6962DB"/>
			<stop  offset="1" style="stop-color:#6D66E7"/>
		</radialGradient>
		<circle id="Ellipse_7" class="st24" cx="699.2" cy="495.5" r="4"/>
		
			<radialGradient id="Ellipse_8_1_" cx="577.7166" cy="615.7057" r="0.947" gradientTransform="matrix(7.5 0 0 -7.5 -3623.5786 5110.9478)" gradientUnits="userSpaceOnUse">
			<stop  offset="0" style="stop-color:#231F20"/>
			<stop  offset="0.102" style="stop-color:#262228"/>
			<stop  offset="0.264" style="stop-color:#2F2A3F"/>
			<stop  offset="0.465" style="stop-color:#3D3865"/>
			<stop  offset="0.699" style="stop-color:#504A99"/>
			<stop  offset="0.956" style="stop-color:#6962DB"/>
			<stop  offset="1" style="stop-color:#6D66E7"/>
		</radialGradient>
		<circle id="Ellipse_8" class="st25" cx="712.6" cy="494.4" r="3.8"/>
		
			<radialGradient id="Ellipse_9_1_" cx="566.9438" cy="619.9858" r="1.028" gradientTransform="matrix(6.834 0 0 -6.834 -3152.6516 4729.6426)" gradientUnits="userSpaceOnUse">
			<stop  offset="0" style="stop-color:#231F20"/>
			<stop  offset="0.102" style="stop-color:#262228"/>
			<stop  offset="0.264" style="stop-color:#2F2A3F"/>
			<stop  offset="0.465" style="stop-color:#3D3865"/>
			<stop  offset="0.699" style="stop-color:#504A99"/>
			<stop  offset="0.956" style="stop-color:#6962DB"/>
			<stop  offset="1" style="stop-color:#6D66E7"/>
		</radialGradient>
		<circle id="Ellipse_9" class="st26" cx="725" cy="493.7" r="3.4"/>
		<g id="Group_218">
			<path id="Path_319" class="st21" d="M746.6,480.3c-0.3,0-0.5-0.2-0.5-0.5v-23.3c0-0.3,0.2-0.5,0.5-0.5s0.5,0.2,0.5,0.5v23.3
				C747.1,480.1,746.9,480.3,746.6,480.3z"/>
		</g>
	</g>
	<g id="dog_x5F_tail">
		
			<linearGradient id="Path_320_1_" gradientUnits="userSpaceOnUse" x1="669.9405" y1="578.0057" x2="670.9405" y2="578.0057" gradientTransform="matrix(45.9193 0 0 -50.1555 -30112.1602 29260.5977)">
			<stop  offset="0" style="stop-color:#FFE2A8"/>
			<stop  offset="1" style="stop-color:#728390"/>
		</linearGradient>
		<path id="Path_320" class="st27" d="M651,285.5c3.6,0,14.7-0.5,22.8-8.8c10.4-10.8,6.8-31.3,6.8-31.3s3.8-0.1,5.3,3.1
			c1.9,4.3-0.6,12,1,12.9c2.7,1.5,3.4-4.9,5.5-3.9s1.8,5.9,1.4,10.3c-0.4,4.1-3.3,8-2.3,9.3c1.3,1.7,4.4-2.6,5.4-0.6
			s-2.6,5.9-5.8,7.9c-2.8,1.8-7.6,3.4-7.4,4.4s4.6,1,3.9,3s-6.4,1.3-9.8,1.3s-8.5-0.1-11.3,2.1S651,285.5,651,285.5z"/>
		<g id="Group_219">
			<path id="Path_321" class="st28" d="M664.1,266.2c-0.3,0-0.5-0.2-0.5-0.5c0-0.2,0.1-0.3,0.2-0.4c0.1,0,6.4-4.6,6.1-9.4
				c-0.2-3.1-1.9-4.6-3.8-6.5c-1.4-1.2-2.6-2.6-3.6-4.1c-2.9-4.5-1.9-10.4,2.3-13.7c0.2-0.2,0.5-0.1,0.7,0.1
				c0.2,0.2,0.1,0.5-0.1,0.7c-3.8,2.9-4.7,8.3-2,12.3c0.9,1.5,2.1,2.8,3.4,3.9c2,1.9,3.9,3.7,4.1,7.1c0.3,5.3-6.3,10.1-6.5,10.3
				C664.3,266.1,664.2,266.2,664.1,266.2z"/>
		</g>
		<g id="Group_220">
			<path id="Path_322" class="st28" d="M656.4,253.3c-0.1,0-0.2,0-0.3-0.1c-2.6-1.8-4.3-4.8-4.5-8c-0.3-3.3,0.8-6.3,2-7.4
				c0.2-0.2,0.5-0.2,0.7,0s0.2,0.5,0,0.7c-1,1-1.9,3.8-1.7,6.6c0.2,2.9,1.7,5.6,4.1,7.3c0.2,0.2,0.3,0.5,0.1,0.7
				C656.7,253.2,656.6,253.3,656.4,253.3L656.4,253.3z"/>
		</g>
		<g id="Group_221">
			<path id="Path_323" class="st28" d="M695.2,291L695.2,291c-0.3,0-0.5-0.3-0.5-0.5c0.2-1.8,2.4-2.7,6.5-4.3
				c1.3-0.5,2.7-1.1,4.3-1.7c2.3-1,3.7-2.3,4.3-4c0.5-1.9,0.3-3.9-0.7-5.7c-0.1-0.2,0-0.5,0.2-0.7c0.2-0.1,0.5,0,0.7,0.2
				c1.1,2,1.4,4.3,0.8,6.5c-0.7,2-2.3,3.5-4.9,4.6c-1.6,0.7-3.1,1.3-4.3,1.8c-3.6,1.4-5.8,2.3-5.9,3.5
				C695.7,290.8,695.5,291,695.2,291z"/>
		</g>
	</g>
	<g id="dog_x5F_hose">
		
			<linearGradient id="Path_324_1_" gradientUnits="userSpaceOnUse" x1="650.6051" y1="578.4821" x2="651.6053" y2="578.4821" gradientTransform="matrix(22.1479 0 0 -46.764 -13805.2646 27302.9805)">
			<stop  offset="0" style="stop-color:#A281FF"/>
			<stop  offset="1" style="stop-color:#FF57BD"/>
		</linearGradient>
		<path id="Path_324" class="st29" d="M605,227.5l0.8,0.1c0.4,0,0.8,0.1,1.1,0.1c0.6,0.1,1.3,0.2,1.9,0.4c1.2,0.3,2.4,0.8,3.6,1.4
			c2.2,1.1,4.3,2.6,6,4.4c3.4,3.5,5.8,7.9,6.9,12.7c1.1,4.6,1.4,9.4,0.6,14c-0.7,5-2.7,9.7-5.8,13.6l-8.1-7c2.1-2.4,3.4-5.3,4-8.4
			c0.7-3.4,0.7-6.8,0.1-10.2c-0.6-3.2-2-6.2-4.2-8.7c-1-1.2-2.2-2.2-3.6-3c-0.6-0.4-1.3-0.7-2-0.9c-0.3-0.1-0.7-0.2-1-0.3l-0.4-0.1
			c-0.2,0-0.5-0.1-0.7-0.1L605,227.5z"/>
		<g id="Group_222">
			<path id="Path_325" class="st30" d="M612.8,241.5c-0.3,0-0.5-0.2-0.5-0.5s0.2-0.5,0.5-0.5c1.7-0.2,4.8-1.2,6.2-5.7
				c0.1-0.3,0.3-0.4,0.6-0.4c0.3,0.1,0.4,0.3,0.4,0.6l0,0C618.3,240.1,614.8,241.2,612.8,241.5L612.8,241.5z"/>
		</g>
		<g id="Group_223">
			<path id="Path_326" class="st30" d="M619.8,252.3c-1.2,0-2.3-0.2-3.4-0.5c-0.3-0.1-0.4-0.4-0.3-0.6c0.1-0.3,0.4-0.4,0.6-0.3
				c2.2,0.6,6.8,1,8.7-2.1c0.1-0.2,0.5-0.3,0.7-0.2c0.2,0.1,0.3,0.5,0.2,0.7C624.8,251.6,622.2,252.3,619.8,252.3z"/>
		</g>
		<g id="Group_224">
			<path id="Path_327" class="st30" d="M622.4,263.9c-2.8,0.1-5.5-1.1-7.2-3.2c-0.2-0.2-0.2-0.5,0.1-0.7c0.2-0.2,0.5-0.2,0.7,0.1
				l0,0c1,1.2,3.8,3.8,9.5,2.5c0.3-0.1,0.5,0.1,0.6,0.4s-0.1,0.5-0.4,0.6C624.6,263.8,623.5,263.9,622.4,263.9z"/>
		</g>
	</g>
	<g id="dog_x5F_right_leg">
		
			<linearGradient id="Path_328_1_" gradientUnits="userSpaceOnUse" x1="664.4011" y1="580.7876" x2="665.4005" y2="580.7876" gradientTransform="matrix(35.12 0 0 -35.271 -22723.127 20825.1035)">
			<stop  offset="0" style="stop-color:#FF57BD"/>
			<stop  offset="1" style="stop-color:#FE6A77"/>
		</linearGradient>
		<path id="Path_328" class="st31" d="M645.7,346.3c-0.5-0.9-0.9-1.9-1.2-2.9c-1.3-4.2-1.7-8.7-1.3-13.1c0,0-8.9-2.8-16-4.3
			s-16.6-3.5-16.6-3.5c0.2,6.4,4.3,19.6,13,27.9c3,2.9,6.3,5.4,10,7.4C637.2,357.7,643.2,353.1,645.7,346.3z"/>
		
			<linearGradient id="Path_329_1_" gradientUnits="userSpaceOnUse" x1="649.2131" y1="586.5229" x2="650.2131" y2="586.5229" gradientTransform="matrix(21.3522 0 0 -21.892 -13228.5479 13197.4883)">
			<stop  offset="0" style="stop-color:#C5188E"/>
			<stop  offset="1" style="stop-color:#9F36AD"/>
		</linearGradient>
		<path id="Path_329" class="st32" d="M653.3,368.2c2.7-0.7,1.3-9.4,0.4-11.4c-0.7-1.7-5.3-5.2-8-10.4c-2.5,6.7-8.5,11.4-12.2,11.4
			c6.2,3.4,10.7,3.5,12.8,4.8C648.2,363.7,650.4,368.9,653.3,368.2z"/>
	</g>
	<g id="dog_x5F_right_hand">
		
			<linearGradient id="Path_330_1_" gradientUnits="userSpaceOnUse" x1="645.8131" y1="587.8307" x2="646.8131" y2="587.8307" gradientTransform="matrix(19.6295 0 0 -20.1482 -12131.1143 12130.3896)">
			<stop  offset="0" style="stop-color:#FF57BD"/>
			<stop  offset="1" style="stop-color:#FE6A77"/>
		</linearGradient>
		<path id="Path_330" class="st33" d="M560.6,276.6c-3.9,2.3-6.5,3.5-13.1,3.8c-0.4,0-0.7,0-1.1,0c1.2,4.4,1,9.1-0.6,13.4
			c5.7,2.5,12,3.4,18.2,2.7C567.4,292.7,564.3,280.9,560.6,276.6z"/>
		
			<linearGradient id="Path_331_1_" gradientUnits="userSpaceOnUse" x1="655.5201" y1="594.4301" x2="656.5201" y2="594.4301" gradientTransform="matrix(25.5041 0 0 -14.3759 -16196.7529 8832.0078)">
			<stop  offset="0" style="stop-color:#C5188E"/>
			<stop  offset="1" style="stop-color:#9F36AD"/>
		</linearGradient>
		<path id="Path_331" class="st34" d="M546.4,280.3c-5.2,0-11.8-1-14.6-0.9c-3.3,0-6.5,1.3-8.8,3.8c-1.6,1.7-2,5-0.2,6.1
			c2.3,1.5,8-0.6,11.2-1.1s5.7,3,11.7,5.5h0.1C547.4,289.5,547.6,284.8,546.4,280.3z"/>
	</g>
	<g id="dog_x5F_body">
		
			<linearGradient id="Path_332_1_" gradientUnits="userSpaceOnUse" x1="680.6328" y1="575.4307" x2="681.4698" y2="575.8696" gradientTransform="matrix(111.225 0 0 -77.25 -75134.0391 44766.457)">
			<stop  offset="0" style="stop-color:#05C5DA"/>
			<stop  offset="1" style="stop-color:#5860C4"/>
		</linearGradient>
		<path id="Path_332" class="st35" d="M645.1,299.4c8.3-9.5,20.3-6.5,22.6-4.3c-0.1-0.1-0.3-0.3-0.4-0.4
			c-9.8-10.4-23.7-13.3-37.8-20.3c-12-6.1-24.7-14.5-28.3-18.5c0,0-6.3,8.9-21.3,15.3c-10.2,4.4-23.4,2.9-23.4,2.9
			s1.2,11.1,5.8,19.6c6.9,12.8,30.3,26,50.6,32.5c11,3.6,22.4,5.9,34,6.9C644.6,329,636.7,309,645.1,299.4z"/>
		<g id="Group_225">
			<path id="Path_333" class="st36" d="M644.6,300.5C644.6,300.5,644.5,300.5,644.6,300.5c-33.7-4.1-51.7-29.7-53.9-34.6
				c-0.1-0.3,0-0.5,0.3-0.7c0.3-0.1,0.5,0,0.7,0.3c2.1,4.8,19.9,29.9,53,34c0.3,0,0.5,0.3,0.5,0.5
				C645.1,300.4,644.9,300.6,644.6,300.5L644.6,300.5z"/>
		</g>
	</g>
	<g id="dog_x5F_left_leg">
		
			<linearGradient id="Path_334_1_" gradientUnits="userSpaceOnUse" x1="666.8699" y1="577.0971" x2="667.8699" y2="577.0971" gradientTransform="matrix(39.233 0 0 -58.1359 -25521.9453 33871.957)">
			<stop  offset="0" style="stop-color:#00E2EC"/>
			<stop  offset="1" style="stop-color:#0090B2"/>
		</linearGradient>
		<path id="Path_334" class="st37" d="M680.6,338c-2.6-7.8-2.3-31.1-12.9-42.9c-2.3-2.3-14.3-5.2-22.6,4.3
			c-8.4,9.7-0.5,29.6,1.8,33.8c4.3,7,10.1,13.1,16.9,17.8C667.9,350.2,678.1,344.2,680.6,338z"/>
		
			<linearGradient id="Path_335_1_" gradientUnits="userSpaceOnUse" x1="653.5456" y1="583.3311" x2="654.5456" y2="583.3311" gradientTransform="matrix(24.0406 0 0 -27.7531 -15047.875 16541.0938)">
			<stop  offset="0" style="stop-color:#A281FF"/>
			<stop  offset="1" style="stop-color:#FF57BD"/>
		</linearGradient>
		<path id="Path_335" class="st38" d="M684.4,365.7c4.2-0.2,3.6-10.6,2.9-15.1c-0.8-4.6-4.7-7.6-6.5-12.1c-0.1-0.2-0.1-0.3-0.2-0.5
			c-2.5,6.2-12.7,12.2-16.8,12.9c4.5,2.9,9.2,5.5,14.1,7.6C679.5,359.3,680.5,365.9,684.4,365.7z"/>
		<g id="Group_226">
			<path id="Path_336" class="st36" d="M674.6,345.6c-0.1,0-0.3-0.1-0.4-0.1c-20.6-20.4-18.7-39.4-18-46.5c0-0.3,0.3-0.5,0.5-0.4
				c0.3,0,0.5,0.3,0.4,0.5c-0.7,7-2.6,25.6,17.7,45.7c0.2,0.2,0.2,0.5,0,0.7C674.9,345.5,674.7,345.6,674.6,345.6z"/>
		</g>
	</g>
	<g id="dog_x5F_left_hand">
		
			<linearGradient id="Path_337_1_" gradientUnits="userSpaceOnUse" x1="669.7842" y1="580.4617" x2="670.2651" y2="579.8907" gradientTransform="matrix(44.7791 0 0 -37.7305 -29405.6992 22181.5938)">
			<stop  offset="0" style="stop-color:#00E2EC"/>
			<stop  offset="1" style="stop-color:#0090B2"/>
		</linearGradient>
		<path id="Path_337" class="st39" d="M614.1,276.6c-3.4-3.5-11-5.9-17.9-3c-9.2,3.9-17.3,15.9-23.2,22.7c3.3,0.7,7.8,2.9,9.8,6.5
			c1.2,2.3,1.9,4.7,2,7.3c9.9-1.8,21.2-6.2,27.6-12.5C621,289.4,617.6,280.2,614.1,276.6z"/>
		
			<linearGradient id="Path_338_1_" gradientUnits="userSpaceOnUse" x1="663.0167" y1="585.4809" x2="664.0167" y2="585.4809" gradientTransform="matrix(33.1708 0 0 -23.513 -21441.0332 14074.4805)">
			<stop  offset="0" style="stop-color:#A281FF"/>
			<stop  offset="1" style="stop-color:#FF57BD"/>
		</linearGradient>
		<path id="Path_338" class="st40" d="M573,296.3c-1.1,1.3-2.3,2.5-3.6,3.6c-6.3,4.9-12.2,8.4-14.8,11c-2.2,2.3-4.3,5.8-2.1,7.8
			c2.9,2.7,7.1,0.3,11.8-3.8c3.8-3.3,5.7-3.1,15.7-4.1c1.6-0.2,3.2-0.4,4.8-0.7c-0.2-2.5-0.9-5-2-7.3
			C580.9,299.1,576.4,297,573,296.3z"/>
		<g id="Group_227">
			<path id="Path_339" class="st36" d="M582.9,303.3c-0.3,0-0.5-0.2-0.5-0.5c0-0.2,0.1-0.4,0.3-0.5c13.4-4.6,28.8-21.4,31-25.9
				c0.1-0.3,0.4-0.4,0.7-0.2c0.3,0.1,0.4,0.4,0.2,0.7c-2.2,4.8-17.7,21.6-31.5,26.4C583,303.3,582.9,303.3,582.9,303.3z"/>
		</g>
	</g>
	<g id="dog_x5F_head">
		
			<linearGradient id="Path_340_1_" gradientUnits="userSpaceOnUse" x1="643.8293" y1="607.9114" x2="644.8293" y2="607.9114" gradientTransform="matrix(18.7469 0 0 -9.0692 -11530.7666 5759.0718)">
			<stop  offset="0" style="stop-color:#9F36AD"/>
			<stop  offset="0.107" style="stop-color:#8D3399"/>
			<stop  offset="0.404" style="stop-color:#602A65"/>
			<stop  offset="0.662" style="stop-color:#3F243F"/>
			<stop  offset="0.869" style="stop-color:#2A2028"/>
			<stop  offset="1" style="stop-color:#231F20"/>
		</linearGradient>
		<path id="Path_340" class="st41" d="M539,248.2c2.1-0.1,11.6-2.8,13.2-5.6s5.5-0.2,5.5-0.2s0.4,7.7-7.9,7.9S539,248.2,539,248.2z"
			/>
		<path id="Path_341" class="st42" d="M544.7,248.9c0.2-0.7,1.6-1.8,3.9-2.7c2.6-0.9,5.4-1.3,8.1-1.3c-3.1,2.1-1.7,5.2-4.2,5.4
			C546.7,250.8,544.7,248.9,544.7,248.9z"/>
		
			<linearGradient id="Path_342_1_" gradientUnits="userSpaceOnUse" x1="607.712" y1="592.2816" x2="608.854" y2="591.5455" gradientTransform="matrix(10.3434 0 0 -16.0389 -5727.0522 9706.0889)">
			<stop  offset="0" style="stop-color:#FFE2A8"/>
			<stop  offset="1" style="stop-color:#728390"/>
		</linearGradient>
		<path id="Path_342" class="st43" d="M561.6,218.3c-0.3-2.7,0.3-15.6,1.3-15.9s8.8,8.2,8.9,14.7C568.2,219,561.6,218.3,561.6,218.3
			z"/>
		
			<linearGradient id="Path_343_1_" gradientUnits="userSpaceOnUse" x1="677.3561" y1="576.5529" x2="678.0701" y2="575.7819" gradientTransform="matrix(76.3604 0 0 -70.7204 -51180.375 40980.1406)">
			<stop  offset="0" style="stop-color:#FFE2A8"/>
			<stop  offset="1" style="stop-color:#728390"/>
		</linearGradient>
		<path id="Path_343" class="st44" d="M525.5,223.4c0.8-1,1.9-1,3-1s22.6,0.3,22.6,0.3s8.1-5.6,14.4-6.4c4.9-0.4,9.8-0.4,14.6,0.1
			c0,0,3.6-3.8,6.8-6.5s6.8-6.4,8.1-6s0.4,10.1-1.3,14.9c-1.2,3.2-3,6.2-5.1,8.9c0.9,5.3,2.5,10.5,4.6,15.5c2.2,4.5,4.9,8.8,8,12.8
			c-4.8,6.7-11.5,11.8-19.3,14.6c-16.6,5.9-25.5,3.6-25.5,3.6s-0.2-4.4-0.1-8.1c0.1-4.6,0.3-8.4,0.3-8.4c-3.4-0.5-6.7-1.3-9.9-2.5
			c-5.2-2.1-7.6-4.1-7.7-6.9c2.9,0.8,5.9,0.8,8.9,0.1c8.2-1.6,8.6-5.3,8.6-5.3s-5.9,1.8-15.3-2C531,237,522.5,227.5,525.5,223.4z"/>
		
			<linearGradient id="Path_344_1_" gradientUnits="userSpaceOnUse" x1="609.3895" y1="605.0791" x2="610.3895" y2="605.0791" gradientTransform="matrix(10.5291 0 0 -9.8313 -5891.4048 6175.9087)">
			<stop  offset="0" style="stop-color:#653271"/>
			<stop  offset="0.113" style="stop-color:#5B2F65"/>
			<stop  offset="0.496" style="stop-color:#3D263F"/>
			<stop  offset="0.805" style="stop-color:#2A2128"/>
			<stop  offset="1" style="stop-color:#231F20"/>
		</linearGradient>
		<path id="Path_344" class="st45" d="M535.4,222.4c-3.6,0-6.5-0.1-6.9-0.1c-1.1,0-2.2,0-3,1c-1.5,2.1-0.1,5.4,2.9,8.8
			C531,230.9,535,227.6,535.4,222.4z"/>
		<circle id="Ellipse_10" class="st46" cx="559.8" cy="223.7" r="1.9"/>
		<circle id="Ellipse_11" class="st10" cx="559.3" cy="222.9" r="0.7"/>
		<circle id="Ellipse_12" class="st46" cx="572.2" cy="227.3" r="2.3"/>
		<circle id="Ellipse_13" class="st10" cx="571.2" cy="226.7" r="0.8"/>
	</g>
	<g id="dog_x5F_helmet">
		
			<radialGradient id="Path_345_1_" cx="679.1616" cy="575.1224" r="0.5003" gradientTransform="matrix(89.0121 0 0 -89.0121 -59890.2578 51420.3516)" gradientUnits="userSpaceOnUse">
			<stop  offset="0" style="stop-color:#4E40AF;stop-opacity:0"/>
			<stop  offset="0.11" style="stop-color:#5446B2;stop-opacity:4.300000e-02"/>
			<stop  offset="0.262" style="stop-color:#6558B9;stop-opacity:0.106"/>
			<stop  offset="0.439" style="stop-color:#8076C6;stop-opacity:0.176"/>
			<stop  offset="0.635" style="stop-color:#A69FD7;stop-opacity:0.255"/>
			<stop  offset="0.843" style="stop-color:#D6D3ED;stop-opacity:0.337"/>
			<stop  offset="1" style="stop-color:#FFFFFF;stop-opacity:0.4"/>
		</radialGradient>
		<path id="Path_345" class="st47" d="M586.8,189.7c-20.9-13-48.3-6.6-61.3,14.3s-6.6,48.3,14.3,61.3c20.9,13,48.3,6.6,61.3-14.3
			S607.7,202.6,586.8,189.7L586.8,189.7z M595.3,247.8c-10.4,16.7-32.3,21.8-49,11.4s-21.8-32.3-11.4-49
			c10.4-16.7,32.3-21.8,49-11.4C600.6,209.1,605.7,231.1,595.3,247.8L595.3,247.8L595.3,247.8z"/>
		<g id="Group_228" class="st48">
			<path id="Path_346" class="st49" d="M560.3,193.9l-1.1,0.2l-1,0.3c-0.7,0.2-1.4,0.4-2,0.6c-1,0.4-2.2-0.2-2.6-1.2
				c-0.4-1,0.2-2.2,1.2-2.6h0.1c0.1,0,0.3-0.1,0.4-0.1c0.8-0.1,1.6-0.2,2.4-0.2h1.2h1.1c0.8,0,1.5,0.7,1.5,1.5
				C561.4,193.1,561,193.7,560.3,193.9L560.3,193.9z"/>
		</g>
		<g id="Group_229" class="st48">
			<path id="Path_347" class="st49" d="M549.9,197.1l-1.1,0.5l-1,0.5c-0.7,0.4-1.4,0.7-2,1.1c-4,2.4-7.5,5.7-10.2,9.6
				c-0.6,0.7-1.6,0.9-2.4,0.3c-0.7-0.5-0.9-1.5-0.4-2.2c2.8-4.4,6.6-8.1,11-10.9c0.7-0.5,1.5-0.9,2.2-1.3l1.2-0.6l1.1-0.5
				c1-0.5,2.2-0.2,2.7,0.8s0.2,2.2-0.8,2.7C550.1,197,550,197,549.9,197.1L549.9,197.1z"/>
		</g>
		
			<linearGradient id="Path_348_1_" gradientUnits="userSpaceOnUse" x1="670.5093" y1="584.7001" x2="671.509" y2="584.7001" gradientTransform="matrix(47.4171 0 0 -24.8885 -31237.168 14818.2412)">
			<stop  offset="0" style="stop-color:#FF57BD"/>
			<stop  offset="1" style="stop-color:#FE6A77"/>
		</linearGradient>
		<path id="Path_348" class="st50" d="M603.8,258.2c-0.9-0.7-1.8-1.5-2.6-2.3c0,0-0.7-0.9-1.8-2.4c-9.8,13.6-26.4,20.6-43,18
			c0,1.6,0.1,2.7,0.1,2.7s0.2,1.5,0.6,3.8C575.1,280.2,592.9,272.6,603.8,258.2z"/>
		<path id="Path_349" class="st49" d="M606.4,216.5c-1.3-5.1-3.5-9.9-6.5-14.2c-13.9-20-41.3-24.9-61.3-11s-24.9,41.3-11,61.3
			s41.3,24.9,61.3,11c2.6-1.8,4.9-3.8,7-6.1c3.6-3.8,6.4-8.3,8.5-13.1c-2,4.9-4.8,9.3-8.3,13.2c-3.5,3.9-7.7,7.1-12.4,9.6
			c-22.1,11.7-49.4,3.2-61-18.8c-11.7-22.1-3.2-49.4,18.8-61s49.4-3.2,61,18.8C604.3,209.5,605.6,213,606.4,216.5L606.4,216.5z"/>
		
			<linearGradient id="Path_350_1_" gradientUnits="userSpaceOnUse" x1="617.4697" y1="583.2529" x2="618.4697" y2="583.2529" gradientTransform="matrix(11.7361 0 0 -27.941 -6650.5771 16527.1133)">
			<stop  offset="0" style="stop-color:#05C5DA"/>
			<stop  offset="1" style="stop-color:#0090B2"/>
		</linearGradient>
		<path id="Path_350" class="st51" d="M606.4,216.5c-7.9,2.7-12.2,11.3-9.6,19.2c1.3,3.8,4,6.9,7.6,8.7
			C608.1,235.6,608.8,225.8,606.4,216.5z"/>
	</g>
	<g id="hose">
		
			<linearGradient id="Path_351_1_" gradientUnits="userSpaceOnUse" x1="655.053" y1="576.0547" x2="656.053" y2="576.0547" gradientTransform="matrix(25.142 0 0 -71.185 -16283.7588 41316.8438)">
			<stop  offset="0" style="stop-color:#05C5DA"/>
			<stop  offset="1" style="stop-color:#5860C4"/>
		</linearGradient>
		<path id="Path_351" class="st52" d="M205.4,281.6c-0.7,0.8-1.4,1.6-2,2.6c-0.7,1.1-1.3,2.2-1.8,3.3c-1.1,2.3-2,4.8-2.7,7.2
			c-1.4,4.9-1.9,10-1.5,15.1c0.4,4.9,1.8,9.7,4.1,14.1c2.4,4.4,5.4,8.4,9.1,11.7L200,346c-4.4-4.8-8-10.4-10.6-16.5
			s-3.9-12.6-3.9-19.3c0.1-9.7,2.7-19.2,7.6-27.5c0.8-1.4,1.7-2.8,2.7-4c1.1-1.5,2.3-2.8,3.7-3.9L205.4,281.6z"/>
		<g id="Group_230">
			<path id="Path_352" class="st36" d="M198.3,294.6c-4.9,0-8.2-3.8-9.1-5c-0.2-0.2-0.1-0.5,0.1-0.7c0.2-0.2,0.5-0.1,0.7,0.1l0,0
				c0.9,1.2,4.2,5,9.1,4.5c0.3,0,0.5,0.2,0.5,0.5s-0.2,0.5-0.5,0.5C198.9,294.6,198.6,294.6,198.3,294.6z"/>
		</g>
		<g id="Group_231">
			<path id="Path_353" class="st36" d="M191.7,310.3c-2.3,0-4.5-0.7-6.3-1.9c-0.2-0.1-0.3-0.5-0.2-0.7s0.5-0.3,0.7-0.2
				c3.4,2.2,7.7,2.3,11.2,0.3c0.2-0.1,0.5-0.1,0.7,0.2c0.1,0.2,0.1,0.5-0.2,0.7l0,0C195.8,309.7,193.7,310.3,191.7,310.3z"/>
		</g>
		<g id="Group_232">
			<path id="Path_354" class="st36" d="M190,328.8c-0.4,0-0.8,0-1.1,0s-0.5-0.3-0.5-0.5c0-0.3,0.3-0.5,0.5-0.5
				c3,0.2,8.5-0.3,11.7-5.1c0.1-0.2,0.5-0.3,0.7-0.2c0.2,0.1,0.3,0.5,0.2,0.7l0,0C198.3,327.9,193.3,328.8,190,328.8z"/>
		</g>
	</g>
	<g id="left_leg">
		
			<linearGradient id="Path_355_1_" gradientUnits="userSpaceOnUse" x1="676.3118" y1="577.513" x2="677.3115" y2="577.513" gradientTransform="matrix(71.0435 0 0 -54.2022 -47519.418 31795.2578)">
			<stop  offset="0" style="stop-color:#D168FF"/>
			<stop  offset="1" style="stop-color:#A340FB"/>
		</linearGradient>
		<path id="Path_355" class="st53" d="M599.1,505.3c-1-3.3-21.7-3.3-24.3-3.7c-1.5-0.2-6.6-16.8-15.9-35.9
			c-15.8,2.6-27.6,15.9-30.8,21.1l0,0c18.4,15.9,31.2,31.2,37.5,32.9C571.4,521.5,600.1,508.7,599.1,505.3z"/>
		
			<linearGradient id="Path_356_1_" gradientUnits="userSpaceOnUse" x1="681.2273" y1="575.1552" x2="682.2276" y2="575.1552" gradientTransform="matrix(122.958 0 0 -88.218 -83326.4063 51181.8867)">
			<stop  offset="0" style="stop-color:#D168FF"/>
			<stop  offset="1" style="stop-color:#A340FB"/>
		</linearGradient>
		<path id="Path_356" class="st54" d="M558.9,465.8c-7.6-15.6-18-32.8-31.4-44.2c-17.7-14.9-36-21.6-50.4-22.9
			c0,0-19.4,8.3-29.2,17.5c-9.5,9-10.2,16.2-12,28.7c18.8,1.2,35.5,6,59.5,19c11.7,6.5,22.6,14.2,32.7,23.1l0,0
			C531.2,481.7,543.1,468.3,558.9,465.8z"/>
		<g id="Group_233">
			
				<linearGradient id="Path_357_1_" gradientUnits="userSpaceOnUse" x1="677.6476" y1="578.104" x2="678.6481" y2="578.104" gradientTransform="matrix(80.2557 0 0 -49.4062 -53940.0625 29003.7109)">
				<stop  offset="0" style="stop-color:#D168FF"/>
				<stop  offset="1" style="stop-color:#A340FB"/>
			</linearGradient>
			<path id="Path_357" class="st55" d="M524.2,466.5c-0.3,0-0.6-0.2-0.8-0.4c-19.8-28.4-67.3-45.2-77.6-47c-0.5-0.1-0.9-0.6-0.8-1.2
				c0.1-0.5,0.6-0.9,1.2-0.8c10.5,1.8,58.7,18.9,78.9,47.8c0.3,0.5,0.2,1.1-0.2,1.4C524.6,466.4,524.4,466.5,524.2,466.5
				L524.2,466.5z"/>
		</g>
	</g>
	<g id="left_hand_x5F_2">
		
			<linearGradient id="Path_358_1_" gradientUnits="userSpaceOnUse" x1="682.1293" y1="577.7413" x2="682.1293" y2="576.7417" gradientTransform="matrix(130.77 0 0 -56.7134 -88849 33027.3242)">
			<stop  offset="0" style="stop-color:#D168FF"/>
			<stop  offset="1" style="stop-color:#A340FB"/>
		</linearGradient>
		<path id="Path_358" class="st56" d="M356,263.5c0,0-14.6-2.8-40.4-1.5c-8,0.4-15,1.1-21,2c-1.5,5.9-3.9,11.5-7,16.6
			c4.6,1.1,8.6,1.6,28.1,11s48.4,28.6,58.9,26.6c12.1-2.3,42.5-13.4,43.8-30.1C419.7,270.5,356,263.5,356,263.5z"/>
		
			<linearGradient id="Path_359_1_" gradientUnits="userSpaceOnUse" x1="646.8969" y1="581.8633" x2="647.8962" y2="581.8633" gradientTransform="matrix(20.1476 0 0 -31.653 -12635.1475 18711.2148)">
			<stop  offset="0" style="stop-color:#05C5DA"/>
			<stop  offset="1" style="stop-color:#5860C4"/>
		</linearGradient>
		<path id="Path_359" class="st57" d="M418.4,288.1c0.3-4-2.8-7.4-7.7-10.4c-4.4,3.1-9.9,8.5-11.6,16c-1.1,5.2-1.1,10.5,0.1,15.6
			C409,304.2,417.7,296.9,418.4,288.1z"/>
		<g id="Group_234">
			<path id="Path_360" class="st58" d="M360.6,275.7c-0.1,0-0.2,0-0.2,0c-25.8-8.4-66.9-6-70-4.8c-0.4,0.2-0.8,0-1-0.4s0-0.8,0.4-1
				h0.1c3.3-1.2,44.3-3.9,71,4.8c0.4,0.1,0.6,0.5,0.5,0.9C361.2,275.5,360.9,275.8,360.6,275.7L360.6,275.7z"/>
		</g>
	</g>
	<g id="left_hand_x5F_1">
		
			<linearGradient id="Path_361_1_" gradientUnits="userSpaceOnUse" x1="674.9218" y1="578.418" x2="675.9218" y2="578.418" gradientTransform="matrix(63.4655 0 0 -47.1981 -42478.9063 27578.2324)">
			<stop  offset="0" style="stop-color:#D168FF"/>
			<stop  offset="1" style="stop-color:#A340FB"/>
		</linearGradient>
		<path id="Path_361" class="st59" d="M417.6,281.6c-3.8-9.9-20.1-18-30.2-23c-2.9-1.5-6.1-2.8-9.4-4.2c-0.6,4.8-2.8,9.3-6.2,12.7
			c-5.3,5.2-12.2,6.1-16.5,6.2c2.8,3.6,6,7,9.5,10c8.1,6.7,24.7,17,37.3,18.2c5.4,0.5,10.1-0.6,12.9-4.6
			C416.9,294,420.5,289.2,417.6,281.6z"/>
		
			<linearGradient id="Path_362_1_" gradientUnits="userSpaceOnUse" x1="647.5285" y1="584.2023" x2="648.5285" y2="584.2023" gradientTransform="matrix(20.4624 0 0 -25.8599 -12851.707 15396.1475)">
			<stop  offset="0" style="stop-color:#05C5DA"/>
			<stop  offset="1" style="stop-color:#0090B2"/>
		</linearGradient>
		<path id="Path_362" class="st60" d="M414.9,296.9c2-2.9,5.6-7.7,2.7-15.3c-0.9-2.2-2.1-4.1-3.7-5.8c-4.5,2.3-12.6,8.4-14.8,18
			c-0.5,2.4-0.8,4.8-0.8,7.2c1.2,0.3,2.5,0.5,3.8,0.6C407.4,302,412.1,300.9,414.9,296.9z"/>
		
			<linearGradient id="Path_363_1_" gradientUnits="userSpaceOnUse" x1="674.4598" y1="576.3879" x2="675.4598" y2="576.3879" gradientTransform="matrix(61.2974 0 0 -66.4033 -41025.9102 38514.2773)">
			<stop  offset="0" style="stop-color:#00E2EC"/>
			<stop  offset="1" style="stop-color:#0090B2"/>
		</linearGradient>
		<path id="Path_363" class="st61" d="M378,254.5c-12.2-5-25.4-9.3-29.5-15c-4.1-5.6-2.6-15.2-4.4-22c-1.4-5.1-5.6-11.2-9.8-10.5
			c-5.1,0.8-5.9,7.8-4.9,13.3s2.3,10-0.9,10.8c-2.7,0.6-6.2-1.5-7.8-2.1c-1.1-0.4-5.3-0.5-3.9,4.5c1.9,6.5,13.3,11.8,19.9,17.4
			c5.2,4.4,11.5,14.1,18.4,22.6c4.3-0.1,11.2-1,16.5-6.2C375.2,263.7,377.4,259.3,378,254.5z"/>
	</g>
	<g id="body">
		
			<linearGradient id="Path_364_1_" gradientUnits="userSpaceOnUse" x1="684.1829" y1="572.8427" x2="684.7669" y2="573.3427" gradientTransform="matrix(209 0 0 -204.7532 -142726.0938 117705.6719)">
			<stop  offset="0" style="stop-color:#D168FF"/>
			<stop  offset="1" style="stop-color:#A340FB"/>
		</linearGradient>
		<path id="Path_364" class="st62" d="M438.2,370.2c0,0-16.8-25.9-53.1-52.8c-39.3-29.1-94.6-42.2-99.9-42c0,0-10.3,13.3-21.5,20.3
			s-34.5,7.8-34.5,7.8s3.8,31.9,20,70.4c5.2,12.4,10.9,21.5,17.7,33.3c19.8,34.8,51.3,70.8,93.6,73
			C354.4,446.3,380.2,395,438.2,370.2z"/>
		<g id="Group_235">
			
				<linearGradient id="Path_365_1_" gradientUnits="userSpaceOnUse" x1="681.7631" y1="574.3188" x2="682.347" y2="574.8188" gradientTransform="matrix(128.8025 0 0 -105.2545 -87503.9922 60810.4844)">
				<stop  offset="0" style="stop-color:#D168FF"/>
				<stop  offset="1" style="stop-color:#A340FB"/>
			</linearGradient>
			<path id="Path_365" class="st63" d="M406.9,389.2c-0.3,0-0.6-0.1-0.8-0.4c-42.8-53.1-94.8-88.6-126.4-103
				c-0.5-0.2-0.7-0.8-0.5-1.3s0.8-0.7,1.3-0.5c31.8,14.4,84.2,50.2,127.2,103.5c0.3,0.4,0.3,1.1-0.2,1.4
				C407.3,389.2,407.1,389.2,406.9,389.2L406.9,389.2z"/>
		</g>
		<g id="Group_236">
			
				<linearGradient id="Path_366_1_" gradientUnits="userSpaceOnUse" x1="678.5113" y1="576.649" x2="679.0953" y2="577.149" gradientTransform="matrix(85.4987 0 0 -60.4452 -57715.9297 35299.1563)">
				<stop  offset="0" style="stop-color:#D168FF"/>
				<stop  offset="1" style="stop-color:#A340FB"/>
			</linearGradient>
			<path id="Path_366" class="st64" d="M360.6,459.8h-0.1c-50.2-5.9-82.9-56.7-84.2-58.9c-0.3-0.5-0.2-1.1,0.3-1.4s1.1-0.2,1.4,0.3
				c11.4,18,43.4,53.3,82.8,58c0.5,0.1,0.9,0.6,0.9,1.1C361.5,459.4,361.1,459.8,360.6,459.8L360.6,459.8z"/>
		</g>
		
			<linearGradient id="Path_367_1_" gradientUnits="userSpaceOnUse" x1="679.5168" y1="575.0759" x2="680.1008" y2="575.5759" gradientTransform="matrix(95.5154 0 0 -85.038 -64593.2031 49256.4023)">
			<stop  offset="0" style="stop-color:#D168FF"/>
			<stop  offset="1" style="stop-color:#A340FB"/>
		</linearGradient>
		<path id="Path_367" class="st65" d="M289.9,337.3c-1.8,9,31.7,39.5,41.3,39.5c9.4,0,43.7-38.8,54.1-59.2c-0.1-0.1-0.2-0.1-0.2-0.2
			c-14.4-10.6-30.9-19.2-46.4-25.7C324.5,300.4,291.9,327.5,289.9,337.3z"/>
		<g id="Group_238">
			
				<linearGradient id="Ellipse_14_1_" gradientUnits="userSpaceOnUse" x1="640.9315" y1="590.0828" x2="641.5154" y2="590.5828" gradientTransform="matrix(17.506 0 0 -17.506 -10895.8477 10673.9424)">
				<stop  offset="0" style="stop-color:#D168FF"/>
				<stop  offset="1" style="stop-color:#A340FB"/>
			</linearGradient>
			<circle id="Ellipse_14" class="st66" cx="329" cy="339.9" r="8.8"/>
			
				<linearGradient id="Ellipse_15_1_" gradientUnits="userSpaceOnUse" x1="579.9089" y1="614.5015" x2="580.4929" y2="615.0015" gradientTransform="matrix(7.64 0 0 -7.64 -4090.6421 5023.5635)">
				<stop  offset="0" style="stop-color:#D168FF"/>
				<stop  offset="1" style="stop-color:#A340FB"/>
			</linearGradient>
			<circle id="Ellipse_15" class="st67" cx="341.9" cy="327" r="3.8"/>
			<g id="Group_237">
				
					<linearGradient id="Path_368_1_" gradientUnits="userSpaceOnUse" x1="666.6989" y1="579.7722" x2="667.2829" y2="580.2722" gradientTransform="matrix(38.5 0 0 -38.5 -25349.2715 22669.998)">
					<stop  offset="0" style="stop-color:#D168FF"/>
					<stop  offset="1" style="stop-color:#A340FB"/>
				</linearGradient>
				<path id="Path_368" class="st68" d="M329,359.2c-10.6,0-19.3-8.6-19.3-19.3s8.6-19.3,19.3-19.3s19.3,8.6,19.3,19.3
					C348.2,350.6,339.6,359.2,329,359.2z M329,322.7c-9.5,0-17.3,7.7-17.3,17.3s7.7,17.3,17.3,17.3s17.3-7.7,17.3-17.3
					C346.2,330.4,338.5,322.7,329,322.7z"/>
			</g>
		</g>
		<g id="Group_239">
			
				<linearGradient id="Path_369_1_" gradientUnits="userSpaceOnUse" x1="642.8173" y1="588.8797" x2="643.4012" y2="589.3797" gradientTransform="matrix(18.2325 0 0 -18.692 -11366.9277 11323.6807)">
				<stop  offset="0" style="stop-color:#D168FF"/>
				<stop  offset="1" style="stop-color:#A340FB"/>
			</linearGradient>
			<path id="Path_369" class="st69" d="M351,321.4c-1.1,0-2-0.9-2-2c0-0.5,0.2-1,0.6-1.4l14.2-14.7c0.8-0.8,2-0.8,2.8-0.1
				s0.8,2,0.1,2.8l0,0l-14.2,14.7C352,321.2,351.5,321.4,351,321.4z"/>
		</g>
		<g id="Group_240">
			
				<linearGradient id="Path_370_1_" gradientUnits="userSpaceOnUse" x1="636.9824" y1="591.4055" x2="637.5665" y2="591.9055" gradientTransform="matrix(16.1558 0 0 -16.3614 -9947.1943 9985.1221)">
				<stop  offset="0" style="stop-color:#D168FF"/>
				<stop  offset="1" style="stop-color:#A340FB"/>
			</linearGradient>
			<path id="Path_370" class="st70" d="M342,313.3c-1.1,0-2-0.9-2-2c0-0.5,0.2-1,0.6-1.4l12.2-12.4c0.8-0.8,2.1-0.7,2.8,0.1
				c0.7,0.8,0.7,1.9,0,2.7l-12.2,12.4C343.1,313.1,342.5,313.3,342,313.3z"/>
		</g>
		<g id="Group_241">
			
				<linearGradient id="Path_371_1_" gradientUnits="userSpaceOnUse" x1="642.5341" y1="587.7977" x2="643.1181" y2="588.2977" gradientTransform="matrix(18.12 0 0 -19.9105 -11278.9688 12026.8379)">
				<stop  offset="0" style="stop-color:#D168FF"/>
				<stop  offset="1" style="stop-color:#A340FB"/>
			</linearGradient>
			<path id="Path_371" class="st71" d="M361.5,328.9c-1.1,0-2-0.9-2-2c0-0.5,0.2-1,0.5-1.3l14.1-15.9c0.7-0.8,2-0.9,2.8-0.2
				s0.9,2,0.2,2.8L363,328.2C362.6,328.6,362.1,328.9,361.5,328.9z"/>
		</g>
	</g>
	<g id="right_leg">
		
			<linearGradient id="Path_372_1_" gradientUnits="userSpaceOnUse" x1="683.7185" y1="574.2631" x2="684.7184" y2="574.2631" gradientTransform="matrix(195.2534 0 0 -115.7929 -133138.6719 66918.1406)">
			<stop  offset="0" style="stop-color:#D168FF"/>
			<stop  offset="1" style="stop-color:#6B0DC5"/>
		</linearGradient>
		<path id="Path_372" class="st72" d="M554.9,387.4L554.9,387.4c-28.2-9.8-63.2-23.6-87.1-22.7c-20,0.7-29.5,5.5-29.5,5.5
			c-58,24.8-83.8,76.1-77.8,110c74.2,4,95.9-39.7,135.3-53.3c15.5-5.4,34.7-6,52.2-5.6l0,0C543.7,403.1,552.4,391.2,554.9,387.4z"/>
		
			<linearGradient id="Path_373_1_" gradientUnits="userSpaceOnUse" x1="673.0193" y1="583.5383" x2="674.0197" y2="583.5383" gradientTransform="matrix(55.3882 0 0 -27.282 -36839.0859 16298.4033)">
			<stop  offset="0" style="stop-color:#D168FF"/>
			<stop  offset="1" style="stop-color:#6B0DC5"/>
		</linearGradient>
		<path id="Path_373" class="st73" d="M467.5,391.8c21-1.8,26.4-17.3,26.1-24c-9.4-2.1-18.2-3.3-25.9-3.1c-20,0.7-29.5,5.5-29.5,5.5
			C439.2,380.8,447.7,393.5,467.5,391.8z"/>
		<g id="Group_242">
			
				<linearGradient id="Path_374_1_" gradientUnits="userSpaceOnUse" x1="420.4203" y1="587.657" x2="421.4203" y2="587.657" gradientTransform="matrix(3.092 0 0 -20.367 -836.201 12342.1064)">
				<stop  offset="0" style="stop-color:#D168FF"/>
				<stop  offset="1" style="stop-color:#6B0DC5"/>
			</linearGradient>
			<path id="Path_374" class="st74" d="M465.3,383.5c-0.8,0-1.5-0.7-1.5-1.5l-0.1-17.4c0-0.8,0.7-1.5,1.5-1.5l0,0l0,0
				c0.8,0,1.5,0.7,1.5,1.5l0.1,17.4C466.8,382.8,466.1,383.5,465.3,383.5L465.3,383.5L465.3,383.5z"/>
		</g>
		<g id="Group_243">
			
				<linearGradient id="Path_375_1_" gradientUnits="userSpaceOnUse" x1="419.8991" y1="588.0035" x2="420.8991" y2="588.0035" gradientTransform="matrix(3.086 0 0 -19.938 -820.6946 12097.1592)">
				<stop  offset="0" style="stop-color:#D168FF"/>
				<stop  offset="1" style="stop-color:#6B0DC5"/>
			</linearGradient>
			<path id="Path_375" class="st75" d="M476.7,383.5c-0.8,0-1.5-0.7-1.5-1.5l-0.1-16.9c0-0.8,0.7-1.5,1.5-1.5l0,0l0,0
				c0.8,0,1.5,0.7,1.5,1.5l0.1,16.9C478.2,382.8,477.5,383.5,476.7,383.5L476.7,383.5L476.7,383.5z"/>
		</g>
		<g id="Group_244">
			
				<linearGradient id="Path_376_1_" gradientUnits="userSpaceOnUse" x1="456.3052" y1="588.8511" x2="457.3052" y2="588.8511" gradientTransform="matrix(3.571 0 0 -18.971 -1177.3276 11545.1895)">
				<stop  offset="0" style="stop-color:#D168FF"/>
				<stop  offset="1" style="stop-color:#6B0DC5"/>
			</linearGradient>
			<path id="Path_376" class="st76" d="M454.2,383.6c-0.8,0-1.5-0.6-1.5-1.4l-0.6-16c0-0.8,0.6-1.5,1.4-1.6c0.8,0,1.5,0.6,1.6,1.4
				l0.6,16C455.7,382.8,455.1,383.5,454.2,383.6L454.2,383.6z"/>
		</g>
		<g id="Group_245">
			
				<linearGradient id="Path_377_1_" gradientUnits="userSpaceOnUse" x1="683.5598" y1="577.854" x2="684.5598" y2="577.854" gradientTransform="matrix(188.2099 0 0 -51.3349 -128293.0859 30098.7461)">
				<stop  offset="0" style="stop-color:#D168FF"/>
				<stop  offset="1" style="stop-color:#6B0DC5"/>
			</linearGradient>
			<path id="Path_377" class="st77" d="M371.7,460.4c-3.7,0-7.5-0.2-11.2-0.7c-0.5-0.1-0.9-0.6-0.9-1.1c0.1-0.5,0.6-0.9,1.1-0.9
				c39.9,4.7,77.2-17.7,101.9-32.5c8.9-5.3,16-9.6,21.3-11.6c17.6-6.5,44-5,63-2.6c0.5,0.1,0.9,0.6,0.9,1.1
				c-0.1,0.5-0.6,0.9-1.1,0.9l0,0c-18.8-2.4-44.9-3.9-62.1,2.5c-5.2,1.9-12.5,6.3-21,11.4C441,440.6,407.9,460.4,371.7,460.4z"/>
		</g>
		
			<linearGradient id="Path_378_1_" gradientUnits="userSpaceOnUse" x1="676.1639" y1="579.9977" x2="677.1639" y2="579.9977" gradientTransform="matrix(70.1569 0 0 -38.5185 -46890.7422 22743.6289)">
			<stop  offset="0" style="stop-color:#D168FF"/>
			<stop  offset="1" style="stop-color:#6B0DC5"/>
		</linearGradient>
		<path id="Path_378" class="st78" d="M594.2,420.5c4.4-1.8,10.2-5.4,16.8-16.3c4.3-7.2,7.7-20.6,5-20.5
			c-5.8,0.2-12.8,12.5-22.3,13.3c-8.1,0.7-22.3-3.8-38.9-9.6l0,0c-2.5,3.7-11.1,15.7-7,34l0,0C568.6,421.8,586.9,423.6,594.2,420.5z
			"/>
		
			<linearGradient id="Ellipse_16_1_" gradientUnits="userSpaceOnUse" x1="619.0197" y1="598.9877" x2="620.0197" y2="598.9877" gradientTransform="matrix(12 0 0 -12 -6867.46 7596.8477)">
			<stop  offset="0" style="stop-color:#D168FF"/>
			<stop  offset="1" style="stop-color:#6B0DC5"/>
		</linearGradient>
		<circle id="Ellipse_16" class="st79" cx="566.7" cy="409" r="6"/>
	</g>
	<g id="right_hand">
		
			<linearGradient id="Path_379_1_" gradientUnits="userSpaceOnUse" x1="677.2885" y1="573.4271" x2="678.2894" y2="573.4271" gradientTransform="matrix(77.5594 0 0 -163.6323 -52336.6172 94219.1719)">
			<stop  offset="0" style="stop-color:#D168FF"/>
			<stop  offset="1" style="stop-color:#A340FB"/>
		</linearGradient>
		<path id="Path_379" class="st80" d="M261.2,434.5c2.3-21.3,9-32.9,9.8-49.5c0.8-18.1-5.1-70.8-39-78.3c-4.2-0.7-8.5-0.7-12.8,0.1
			C205.5,326,192.4,354,193.5,390c1.3,39.7,24.3,65.9,38,79.5l0.3,0.3c4.3-4,14.5-10.9,29.5-11.2
			C260.6,450.6,260.5,442.5,261.2,434.5z"/>
		
			<linearGradient id="Path_380_1_" gradientUnits="userSpaceOnUse" x1="649.3329" y1="578.4333" x2="650.3329" y2="578.4333" gradientTransform="matrix(21.4184 0 0 -47.088 -13714.0684 27650.5117)">
			<stop  offset="0" style="stop-color:#D168FF"/>
			<stop  offset="1" style="stop-color:#A340FB"/>
		</linearGradient>
		<path id="Path_380" class="st81" d="M213.5,406.9c-4.2-13.4-14.7-16.9-19.9-17.2c0,0.1,0,0.2,0,0.3c0.5,16.4,4.9,32.4,12.8,46.8
			C212.2,432.6,217.7,420.3,213.5,406.9z"/>
		<g id="Group_246">
			
				<linearGradient id="Path_381_1_" gradientUnits="userSpaceOnUse" x1="623.9072" y1="627.3964" x2="624.9072" y2="627.3964" gradientTransform="matrix(12.9157 0 0 -5.9111 -7862.3989 4120.3721)">
				<stop  offset="0" style="stop-color:#D168FF"/>
				<stop  offset="1" style="stop-color:#A340FB"/>
			</linearGradient>
			<path id="Path_381" class="st82" d="M197.3,414.7c-0.8,0-1.5-0.7-1.5-1.5c0-0.7,0.4-1.2,1.1-1.4l9.9-2.9c0.8-0.2,1.6,0.2,1.9,1
				s-0.2,1.6-1,1.9l-9.9,2.9C197.5,414.6,197.4,414.7,197.3,414.7z"/>
		</g>
		<g id="Group_247">
			
				<linearGradient id="Path_382_1_" gradientUnits="userSpaceOnUse" x1="621.4563" y1="628.7695" x2="622.4563" y2="628.7695" gradientTransform="matrix(12.4397 0 0 -5.7711 -7536.7183 4032.4109)">
				<stop  offset="0" style="stop-color:#D168FF"/>
				<stop  offset="1" style="stop-color:#A340FB"/>
			</linearGradient>
			<path id="Path_382" class="st83" d="M195.5,406.6c-0.8,0-1.5-0.7-1.5-1.5c0-0.7,0.4-1.2,1.1-1.4l9.4-2.8c0.8-0.2,1.6,0.2,1.9,1
				s-0.2,1.6-1,1.9l0,0l-9.4,2.8C195.8,406.6,195.6,406.6,195.5,406.6z"/>
		</g>
		<g id="Group_248">
			
				<linearGradient id="Path_383_1_" gradientUnits="userSpaceOnUse" x1="622.0723" y1="624.2145" x2="623.0723" y2="624.2145" gradientTransform="matrix(12.556 0 0 -6.2681 -7612.5142 4332.5835)">
				<stop  offset="0" style="stop-color:#D168FF"/>
				<stop  offset="1" style="stop-color:#A340FB"/>
			</linearGradient>
			<path id="Path_383" class="st84" d="M199.7,423.1c-0.8,0-1.5-0.7-1.5-1.5c0-0.6,0.4-1.2,1-1.4l9.5-3.3c0.8-0.3,1.6,0.1,1.9,0.9
				c0.3,0.8-0.1,1.6-0.9,1.9c0,0,0,0-0.1,0l-9.5,3.3C200,423.1,199.8,423.1,199.7,423.1z"/>
		</g>
		<g id="Group_249">
			
				<linearGradient id="Path_384_1_" gradientUnits="userSpaceOnUse" x1="656.6955" y1="573.6213" x2="657.6962" y2="573.6213" gradientTransform="matrix(26.4631 0 0 -149.2986 -17165.8867 86020.875)">
				<stop  offset="0" style="stop-color:#D168FF"/>
				<stop  offset="1" style="stop-color:#A340FB"/>
			</linearGradient>
			<path id="Path_384" class="st85" d="M237.7,454.7c-0.4,0-0.7-0.2-0.9-0.5s-0.4-0.7-0.7-1.1c-18.5-30-23.2-56.1-23.8-72.7
				c-1.5-37.8,9.6-64.6,16.4-74.6c0.3-0.5,0.9-0.6,1.4-0.3c0.5,0.3,0.6,0.9,0.3,1.4c-6.6,9.7-17.5,36.1-16.1,73.4
				c0.6,16.4,5.2,42.1,23.5,71.7c0.3,0.5,0.5,0.8,0.7,1.1c0.3,0.5,0.1,1.1-0.3,1.4C238.1,454.6,237.9,454.7,237.7,454.7L237.7,454.7
				z"/>
		</g>
		
			<linearGradient id="Path_385_1_" gradientUnits="userSpaceOnUse" x1="670.4766" y1="575.8642" x2="671.4763" y2="575.8642" gradientTransform="matrix(47.3281 0 0 -74.2138 -31500.4297 43232.8633)">
			<stop  offset="0" style="stop-color:#D168FF"/>
			<stop  offset="1" style="stop-color:#A340FB"/>
		</linearGradient>
		<path id="Path_385" class="st86" d="M255.4,497.6c2.1,6.7-3.4,13.5-3.8,19.5c-0.4,6.7,7.5,16,11.8,15.8c4-0.2,6-4.9,5.9-8.1
			s-1.6-11,1.3-11.6s2,5.1,3.4,7.1c0.8,1.2,2.5,1.5,3.7,0.7c0.5-0.3,0.9-0.8,1-1.4c0.8-2.4,1.1-9.1-0.9-13.3
			c-2.4-5.1-7-10.6-10.3-18c-2-4.6-4.8-16.4-6-29.6c-15,0.3-25.3,7.1-29.5,11.2C248.3,486.1,253.4,491.1,255.4,497.6z"/>
	</g>
	<g id="head">
		
			<linearGradient id="Path_386_1_" gradientUnits="userSpaceOnUse" x1="667.6024" y1="581.736" x2="667.7423" y2="580.796" gradientTransform="matrix(39.751 0 0 -33.75 -26286.7754 19896.3848)">
			<stop  offset="0" style="stop-color:#C16846"/>
			<stop  offset="0.265" style="stop-color:#D27565"/>
			<stop  offset="0.531" style="stop-color:#DE7F7B"/>
			<stop  offset="0.781" style="stop-color:#E58589"/>
			<stop  offset="1" style="stop-color:#E8878E"/>
		</linearGradient>
		<path id="Path_386" class="st87" d="M258.4,263.6c1.4,2.3,9.6,11.4,14.3,13.9c-1.4,4.3-7,11-15.9,15.1c-5.2,2.2-10.7,3.8-16.3,4.8
			c-2.3-5.9-4.2-12.1-5.6-18.3c-0.9-4.3-1.6-8.7-2-13.1c4.1,2,8.6,3.1,13.1,3C253.2,268.8,258.4,263.6,258.4,263.6z"/>
		
			<linearGradient id="Path_387_1_" gradientUnits="userSpaceOnUse" x1="670.8043" y1="577.4811" x2="671.5963" y2="578.1031" gradientTransform="matrix(47.9145 0 0 -51.2245 -31922.7734 29848.9258)">
			<stop  offset="0" style="stop-color:#E8878E"/>
			<stop  offset="1" style="stop-color:#F4BEA3"/>
		</linearGradient>
		<path id="Path_387" class="st88" d="M259.3,249.1c-2.9-11.7-11.8-23.5-14.3-26.7h-6.9l-24.4,15l-0.8,12.8c0,0,3.4,4.3,8.7,10
			c-2.1,0.8-3.5,2.9-3.6,5.2c0.1,3.2,2.7,5.7,5.9,5.6c2.3,0,4.3-1.3,5.3-3.3c8.8,7.3,20.5,7.2,26,3.4
			C261.2,267.1,262.2,260.7,259.3,249.1z"/>
		<circle id="Ellipse_17" class="st46" cx="237.2" cy="248.2" r="2"/>
		<circle id="Ellipse_18" class="st46" cx="251.3" cy="238.7" r="1.8"/>
		
			<linearGradient id="Path_388_1_" gradientUnits="userSpaceOnUse" x1="616.4466" y1="598.6143" x2="617.4465" y2="598.6143" gradientTransform="matrix(11.5682 0 0 -12.1662 -6886.9189 7528.0059)">
			<stop  offset="0" style="stop-color:#FF57BD"/>
			<stop  offset="1" style="stop-color:#FE6A77"/>
		</linearGradient>
		<path id="Path_388" class="st89" d="M244.3,239.3c1.4-1.6,11.8,6.9,11.5,8.6s-2.9,3-4.7,3.3C249.1,247.7,243.6,240.1,244.3,239.3z
			"/>
		<g id="Group_250">
			<path id="Path_389" class="st90" d="M251.5,261.1c-1.2,0-2.3-0.4-3.2-1.1c-0.2-0.2-0.2-0.5-0.1-0.7c0.2-0.2,0.5-0.2,0.7-0.1
				c0.7,0.6,1.6,0.9,2.6,0.9c2.3,0,4.2-1.9,4.2-4.2c0-0.3,0-0.6-0.1-0.8c-0.1-0.3,0.1-0.5,0.4-0.6c0.3-0.1,0.5,0.1,0.6,0.4l0,0
				c0.6,2.8-1.2,5.6-4,6.1C252.1,261,251.8,261.1,251.5,261.1L251.5,261.1z"/>
		</g>
		
			<linearGradient id="Path_390_1_" gradientUnits="userSpaceOnUse" x1="670.2021" y1="577.1546" x2="671.2012" y2="577.1546" gradientTransform="matrix(46.5965 0 0 -57.5658 -31023.8301 33460.9023)">
			<stop  offset="0" style="stop-color:#994574"/>
			<stop  offset="1" style="stop-color:#43256F"/>
		</linearGradient>
		<path id="Path_390" class="st91" d="M250.6,208.7c-2.6-2.4-6.4,0.4-8.8,3s-4.2,5.6-6.3,5.4c-3.1-0.3-2-7.6-5.8-7.2
			c-5.7,0.7-8.5,13.8-10.3,14.8s-3.4-3.1-6.3-1.3c-3.6,2.3-2.5,12.9-2.9,15.5c-0.3,1.7-5.4,4.9-4.9,11.3c0.6,7.6,8.1,13.3,12.9,15.1
			l0,0c0-2.7,1.9-4.9,4.5-5.5c-0.1-2.8-0.5-5.5-1.2-8.2c-1.1-3.6-2.9-6.9-5.2-9.8c2.3-0.3,16.8-4.6,26.9-13.4
			C251.8,221,253.3,211.3,250.6,208.7z"/>
	</g>
	<g id="helmet">
		
			<radialGradient id="Path_391_1_" cx="679.4727" cy="574.9786" r="0.508" gradientTransform="matrix(92.5071 0 0 -92.471 -62622.6914 53416.7109)" gradientUnits="userSpaceOnUse">
			<stop  offset="0" style="stop-color:#635AD5;stop-opacity:0"/>
			<stop  offset="0.12" style="stop-color:#B850FF"/>
			<stop  offset="0.288" style="stop-color:#7A72DB;stop-opacity:0.114"/>
			<stop  offset="0.482" style="stop-color:#9690E3;stop-opacity:0.192"/>
			<stop  offset="0.698" style="stop-color:#BDB9ED;stop-opacity:0.278"/>
			<stop  offset="0.927" style="stop-color:#EEEDFA;stop-opacity:0.373"/>
			<stop  offset="1" style="stop-color:#FFFFFF;stop-opacity:0.4"/>
		</radialGradient>
		<path id="Path_391" class="st92" d="M233.6,201.2c-16.5,0-31.7,8.6-40.2,22.7c17.9-16.2,45.6-14.8,61.8,3.1s14.8,45.6-3.1,61.8
			c-2,1.8-4.2,3.5-6.6,4.9c25.1-6.6,40.1-32.2,33.6-57.4C273.7,215.6,255,201.1,233.6,201.2z"/>
		
			<radialGradient id="Path_392_1_" cx="678.1372" cy="575.0406" r="0.5081" gradientTransform="matrix(80.4863 0 0 -90.8979 -54359.3984 52520.1484)" gradientUnits="userSpaceOnUse">
			<stop  offset="0" style="stop-color:#635AD5;stop-opacity:0"/>
			<stop  offset="0.12" style="stop-color:#B850FF"/>
			<stop  offset="0.288" style="stop-color:#7A72DB;stop-opacity:0.114"/>
			<stop  offset="0.482" style="stop-color:#9690E3;stop-opacity:0.192"/>
			<stop  offset="0.698" style="stop-color:#BDB9ED;stop-opacity:0.278"/>
			<stop  offset="0.927" style="stop-color:#EEEDFA;stop-opacity:0.373"/>
			<stop  offset="1" style="stop-color:#FFFFFF;stop-opacity:0.4"/>
		</radialGradient>
		<path id="Path_392" class="st93" d="M245.6,288.3c-15.1,0-31.4-5.4-39.6-16.7c-14.8-20.4-5.5-58,10.7-67.4
			c-24.2,9.3-36.4,36.5-27.1,60.7s36.5,36.4,60.7,27.1c4.3-1.7,8.4-4,12.1-6.8C257.1,287.3,251.4,288.3,245.6,288.3z"/>
		
			<radialGradient id="Path_393_1_" cx="653.3251" cy="585.543" r="0.5084" gradientTransform="matrix(23.5744 0 0 -23.403 -15200.6611 13980.6299)" gradientUnits="userSpaceOnUse">
			<stop  offset="0" style="stop-color:#635AD5;stop-opacity:0"/>
			<stop  offset="0.12" style="stop-color:#B850FF"/>
			<stop  offset="0.288" style="stop-color:#7A72DB;stop-opacity:0.114"/>
			<stop  offset="0.482" style="stop-color:#9690E3;stop-opacity:0.192"/>
			<stop  offset="0.698" style="stop-color:#BDB9ED;stop-opacity:0.278"/>
			<stop  offset="0.927" style="stop-color:#EEEDFA;stop-opacity:0.373"/>
			<stop  offset="1" style="stop-color:#FFFFFF;stop-opacity:0.4"/>
		</radialGradient>
		<path id="Path_393" class="st94" d="M198.8,265.3c-2.8,0-5.5,0.8-7.9,2.4c4,8.8,10.7,16.1,19,21c5-6.2,4.1-15.2-2.1-20.2
			C205.3,266.5,202.1,265.3,198.8,265.3L198.8,265.3z"/>
		<g id="Group_251" class="st48">
			
				<radialGradient id="Path_394_1_" cx="572.9681" cy="624.0683" r="0.5084" gradientTransform="matrix(7.1654 0 0 -6.2847 -3847.626 4142.4634)" gradientUnits="userSpaceOnUse">
				<stop  offset="0" style="stop-color:#635AD5;stop-opacity:0"/>
				<stop  offset="0.12" style="stop-color:#B850FF"/>
				<stop  offset="0.288" style="stop-color:#7A72DB;stop-opacity:0.114"/>
				<stop  offset="0.482" style="stop-color:#9690E3;stop-opacity:0.192"/>
				<stop  offset="0.698" style="stop-color:#BDB9ED;stop-opacity:0.278"/>
				<stop  offset="0.927" style="stop-color:#EEEDFA;stop-opacity:0.373"/>
				<stop  offset="1" style="stop-color:#FFFFFF;stop-opacity:0.4"/>
			</radialGradient>
			<path id="Path_394" class="st95" d="M256.9,217.4l1,0.6l1,0.7c0.7,0.5,1.3,1,2,1.5c0.8,0.6,0.9,1.8,0.3,2.5
				c-0.6,0.8-1.8,0.9-2.5,0.3c-0.1-0.1-0.2-0.2-0.2-0.2c-0.5-0.6-1-1.1-1.5-1.7l-0.8-0.8l-0.9-0.8c-0.5-0.5-0.6-1.4,0-1.9
				C255.6,217.2,256.3,217.1,256.9,217.4L256.9,217.4z"/>
		</g>
		<g id="Group_252" class="st48">
			
				<radialGradient id="Path_395_1_" cx="611.4777" cy="585.6042" r="0.5084" gradientTransform="matrix(10.7519 0 0 -23.302 -6307.5591 13882.6455)" gradientUnits="userSpaceOnUse">
				<stop  offset="0" style="stop-color:#635AD5;stop-opacity:0"/>
				<stop  offset="0.12" style="stop-color:#B850FF"/>
				<stop  offset="0.288" style="stop-color:#7A72DB;stop-opacity:0.114"/>
				<stop  offset="0.482" style="stop-color:#9690E3;stop-opacity:0.192"/>
				<stop  offset="0.698" style="stop-color:#BDB9ED;stop-opacity:0.278"/>
				<stop  offset="0.927" style="stop-color:#EEEDFA;stop-opacity:0.373"/>
				<stop  offset="1" style="stop-color:#FFFFFF;stop-opacity:0.4"/>
			</radialGradient>
			<path id="Path_395" class="st96" d="M266,226.1c1,1.5,1.9,3.1,2.7,4.8c2.4,5,3.6,10.4,3.8,15.9c0,0.9-0.7,1.7-1.7,1.7
				c-0.9,0-1.7-0.7-1.7-1.6c-0.3-6.7-2.5-13.1-6.4-18.6c-0.6-0.9-0.4-2.2,0.5-2.8C264.1,224.9,265.3,225.1,266,226.1L266,226.1
				L266,226.1z"/>
		</g>
		
			<radialGradient id="Path_396_1_" cx="678.2754" cy="578.4152" r="0.508" gradientTransform="matrix(81.5829 0 0 -47.1783 -55082.7656 27576.4414)" gradientUnits="userSpaceOnUse">
			<stop  offset="0" style="stop-color:#635AD5;stop-opacity:0"/>
			<stop  offset="0.12" style="stop-color:#B850FF"/>
			<stop  offset="0.288" style="stop-color:#7A72DB;stop-opacity:0.114"/>
			<stop  offset="0.482" style="stop-color:#9690E3;stop-opacity:0.192"/>
			<stop  offset="0.698" style="stop-color:#BDB9ED;stop-opacity:0.278"/>
			<stop  offset="0.927" style="stop-color:#EEEDFA;stop-opacity:0.373"/>
			<stop  offset="1" style="stop-color:#FFFFFF;stop-opacity:0.4"/>
		</radialGradient>
		<path id="Path_396" class="st97" d="M294.6,264c-6.1,0.9-12.2,2-18.2,3.6c-7.6,16.8-24.4,27.6-42.8,27.6c-1.7,0-3.4-0.1-5.1-0.3
			c-3.9,4.5-7.6,9.3-10.9,14.2C251.3,317.9,285.8,297.7,294.6,264L294.6,264L294.6,264z"/>
		
			<radialGradient id="Path_397_1_" cx="676.2971" cy="575.3623" r="0.5084" gradientTransform="matrix(68.2643 0 0 -83.5194 -45920.6797 48297.0117)" gradientUnits="userSpaceOnUse">
			<stop  offset="0" style="stop-color:#635AD5;stop-opacity:0"/>
			<stop  offset="0.12" style="stop-color:#B850FF"/>
			<stop  offset="0.288" style="stop-color:#7A72DB;stop-opacity:0.114"/>
			<stop  offset="0.482" style="stop-color:#9690E3;stop-opacity:0.192"/>
			<stop  offset="0.698" style="stop-color:#BDB9ED;stop-opacity:0.278"/>
			<stop  offset="0.927" style="stop-color:#EEEDFA;stop-opacity:0.373"/>
			<stop  offset="1" style="stop-color:#FFFFFF;stop-opacity:0.4"/>
		</radialGradient>
		<path id="Path_397" class="st98" d="M216.8,204.3c5.1-2.1,10.6-3.2,16.2-3.4c25.9-0.7,47.5,19.6,48.2,45.5
			c0.4,14.7-6.1,28.8-17.6,38c12.8-10.9,18.9-27.8,15.9-44.4c-1-5.4-2.9-10.6-5.7-15.3c-2.8-4.7-6.3-9-10.5-12.5
			C250.3,201.5,232.6,198.5,216.8,204.3L216.8,204.3z"/>
	</g>
	<g id="phone">
		
			<linearGradient id="Path_398_1_" gradientUnits="userSpaceOnUse" x1="659.3572" y1="578.9254" x2="660.3576" y2="578.9254" gradientTransform="matrix(28.9261 0 0 -44.0093 -18759.0625 25696.1973)">
			<stop  offset="0" style="stop-color:#653271"/>
			<stop  offset="0.113" style="stop-color:#5B2F65"/>
			<stop  offset="0.496" style="stop-color:#3D263F"/>
			<stop  offset="0.805" style="stop-color:#2A2128"/>
			<stop  offset="1" style="stop-color:#231F20"/>
		</linearGradient>
		<path id="Path_398" class="st99" d="M342.4,234.3c0.1,0.5-0.2,1-0.7,1.2l-16.6,4.6c-0.5,0.1-1-0.2-1.2-0.7l-10.4-36.5
			c-0.1-0.5,0.2-1,0.7-1.2l17.6-5.6c0.5-0.1,1,0.2,1.2,0.7L342.4,234.3z"/>
		
			<linearGradient id="Path_399_1_" gradientUnits="userSpaceOnUse" x1="650.8957" y1="580.8171" x2="652.0227" y2="580.1262" gradientTransform="matrix(22.347 0 0 -36.502 -14230.291 21405.5488)">
			<stop  offset="0" style="stop-color:#84DBF1"/>
			<stop  offset="1" style="stop-color:#FFE2A8"/>
		</linearGradient>
		<path id="Path_399" class="st100" d="M338.5,231.7l-13.2,3.7l-9.1-31.8l14.1-4.7L338.5,231.7z"/>
	</g>
	<g id="block">
		<path id="Path_400" class="st101" d="M363.3,159.5c0.5,1.6-0.5,3.3-2.1,3.7L294,183.5c-1.6,0.5-3.3-0.5-3.7-2.1l-5.9-21.7
			c-0.5-1.6,0.5-3.3,2.1-3.7l0,0l67.2-19.8c1.6-0.5,3.3,0.5,3.7,2.1l0,0L363.3,159.5z"/>
		<path id="Path_401" class="st7" d="M354.5,138.2c0.4,0,0.8,0.3,1,0.7l5.9,21.2c0.1,0.5-0.2,1.1-0.7,1.2l0,0l-67.2,20.3
			c-0.1,0-0.2,0-0.3,0c-0.4,0-0.8-0.3-1-0.7l-5.9-21.7c-0.1-0.3,0-0.5,0.1-0.8c0.1-0.2,0.4-0.4,0.6-0.5l67.2-19.8
			C354.3,138.2,354.4,138.2,354.5,138.2 M354.5,136.2c-0.3,0-0.6,0-0.8,0.1l-67.2,19.8c-1.6,0.5-2.5,2.1-2.1,3.7l0,0l5.9,21.7
			c0.5,1.6,2.1,2.5,3.7,2.1l0,0l67.2-20.3c1.6-0.5,2.5-2.1,2.1-3.7l-5.9-21.2C357,137,355.8,136.2,354.5,136.2L354.5,136.2z"/>
		<circle id="Ellipse_19" class="st102" cx="325.2" cy="210.8" r="3.7"/>
		<g id="Group_253">
			<path id="Path_402" class="st7" d="M325.2,211.6L325.2,211.6c-0.5,0-0.8-0.4-0.7-0.8l3.2-37.7c0-0.4,0.4-0.7,0.8-0.7
				s0.7,0.4,0.7,0.8l-3.2,37.7C326,211.3,325.6,211.6,325.2,211.6z"/>
		</g>
		<line id="Line_2" class="st103" x1="327.3" y1="157.7" x2="341.9" y2="163.2"/>
		<line id="Line_3" class="st103" x1="312.3" y1="172.3" x2="321" y2="159.7"/>
		<g id="Group_254">
			<path id="Path_403" class="st49" d="M336.3,147.5l-7.7,9.8l12.2,4.6L336.3,147.5z"/>
			<path id="Path_404" class="st49" d="M334.5,147.3l-25.1,7.7l15.1,5L334.5,147.3z"/>
			<path id="Path_405" class="st49" d="M312.6,170.6l7.2-10.5l-11.7-3.9L312.6,170.6z"/>
			<path id="Path_406" class="st49" d="M327.6,158.6l-2.3,2.9c-0.2,0.2-0.5,0.3-0.8,0.2l-3.2-1.1l-7.1,10.4l25.5-7.8L327.6,158.6z"
				/>
		</g>
	</g>
	<g id="envelopes">
		<g id="Group_258">
			
				<linearGradient id="Path_407_1_" gradientUnits="userSpaceOnUse" x1="675.2982" y1="577.6832" x2="676.2982" y2="577.6832" gradientTransform="matrix(65.3574 0 0 -52.7263 -43837.7578 30852.7402)">
				<stop  offset="0" style="stop-color:#FDE1A7"/>
				<stop  offset="1" style="stop-color:#F9A144"/>
			</linearGradient>
			<path id="Path_407" class="st104" d="M363.2,398c0.4,2.2-1,4.4-3.2,4.8l-50.9,17.1c-2.2,0.4-4.4-1-4.8-3.2l-6.2-31.5
				c-0.4-2.3,1-4.5,3.2-5.2c0,0,15.5-4.6,25.7-6.7c9.9-2,28.2-5.9,28.2-5.9c2.2-0.4,3.9,0.9,4.4,3.4L363.2,398z"/>
			<g id="Group_255">
				<path id="Path_408" class="st105" d="M334.6,398.1c-0.1,0-0.2,0-0.3,0l-36.7-13c-0.4-0.1-0.6-0.6-0.4-1c0.1-0.4,0.6-0.6,0.9-0.4
					l36.2,12.8l23.5-28.4c0.3-0.3,0.7-0.4,1.1-0.1c0.3,0.3,0.4,0.7,0.1,1.1l-23.9,28.8C335,398,334.8,398.1,334.6,398.1z"/>
			</g>
			<g id="Group_256">
				<path id="Path_409" class="st105" d="M306.2,420.3c-0.4,0-0.8-0.3-0.7-0.8c0-0.2,0-0.3,0.1-0.4l15.4-21.3c0.2-0.3,0.7-0.4,1-0.2
					c0.3,0.2,0.4,0.7,0.2,1l0,0l-15.4,21.3C306.7,420.1,306.4,420.3,306.2,420.3z"/>
			</g>
			<g id="Group_257">
				<path id="Path_410" class="st105" d="M362.5,401.9c-0.1,0-0.2,0-0.3-0.1l-18.8-8.1c-0.4-0.2-0.6-0.6-0.4-1s0.6-0.6,1-0.4
					l18.8,8.1c0.4,0.2,0.6,0.6,0.4,1C363.1,401.7,362.8,401.9,362.5,401.9L362.5,401.9z"/>
			</g>
		</g>
		<g id="Group_262">
			
				<linearGradient id="Path_411_1_" gradientUnits="userSpaceOnUse" x1="672.5457" y1="578.8795" x2="673.5457" y2="578.8795" gradientTransform="matrix(53.6832 0 0 -44.2898 -35642.4453 25831.5469)">
				<stop  offset="0" style="stop-color:#FDE1A7"/>
				<stop  offset="1" style="stop-color:#F9A144"/>
			</linearGradient>
			<path id="Path_411" class="st106" d="M515.5,197.5c0.4,1.8-0.6,3.6-2.4,4.1l-40.3,13.6c-1.8,0.5-3.6-0.6-4.1-2.4l0,0l-6.8-25.2
				c-0.5-1.8,0.5-3.7,2.3-4.4c0,0,12.3-4.6,20.4-6.8c7.9-2.2,20.5-5.4,20.5-5.4c1.8-0.5,3.2,0.5,3.8,2.5L515.5,197.5z"/>
			<g id="Group_259">
				<path id="Path_412" class="st107" d="M492.3,196h-0.1l-30.4-8.5c-0.3-0.1-0.4-0.4-0.3-0.6c0.1-0.3,0.4-0.4,0.6-0.3l30,8.4
					l15.5-23.3c0.1-0.2,0.4-0.3,0.7-0.2c0.2,0.1,0.3,0.4,0.2,0.7l0,0l-15.7,23.6C492.6,195.9,492.5,196,492.3,196z"/>
			</g>
			<g id="Group_260">
				<path id="Path_413" class="st107" d="M470.5,215.5c-0.3,0-0.5-0.2-0.5-0.5c0-0.1,0-0.2,0.1-0.3l11.3-18.1
					c0.1-0.2,0.4-0.3,0.7-0.2c0.2,0.1,0.3,0.4,0.2,0.7l0,0L471,215.2C470.9,215.4,470.7,215.5,470.5,215.5z"/>
			</g>
			<g id="Group_261">
				<path id="Path_414" class="st107" d="M515.1,200.5c-0.1,0-0.2,0-0.2-0.1l-15.7-8.6c-0.2-0.1-0.3-0.4-0.2-0.7
					c0.1-0.2,0.4-0.3,0.7-0.2l15.7,8.6c0.2,0.1,0.3,0.4,0.2,0.7C515.5,200.4,515.3,200.5,515.1,200.5L515.1,200.5z"/>
			</g>
		</g>
		<g id="Group_266">
			
				<linearGradient id="Path_415_1_" gradientUnits="userSpaceOnUse" x1="672.2637" y1="578.1446" x2="673.2638" y2="578.1446" gradientTransform="matrix(52.7186 0 0 -49.1138 -35015.1406 28709.8789)">
				<stop  offset="0" style="stop-color:#FDE1A7"/>
				<stop  offset="1" style="stop-color:#F9A144"/>
			</linearGradient>
			<path id="Path_415" class="st108" d="M477.9,309.8c0.9,1.5,0.4,3.5-1.1,4.4l-31.5,24.9c-1.5,0.9-3.5,0.4-4.4-1.1l-14.8-20.1
				c-0.9-1.6-0.5-3.6,1-4.6c0,0,10.2-7.4,17.1-11.6c6.8-4.1,16.7-10.8,16.7-10.8c1.5-0.9,3.1-0.4,4.2,1.4L477.9,309.8z"/>
			<g id="Group_263">
				<path id="Path_416" class="st107" d="M425.8,317.9c-0.3,0-0.5-0.2-0.5-0.5s0.2-0.5,0.5-0.5l30-0.1l7.4-26.1
					c0.1-0.3,0.4-0.4,0.6-0.3c0.3,0.1,0.4,0.4,0.3,0.6l0,0l-7.5,26.5c-0.1,0.2-0.3,0.4-0.5,0.4H425.8L425.8,317.9z"/>
			</g>
			<g id="Group_264">
				<path id="Path_417" class="st107" d="M443.1,340H443c-0.3-0.1-0.4-0.3-0.4-0.6l3.7-18.2c0.1-0.3,0.3-0.4,0.6-0.4
					c0.3,0.1,0.4,0.3,0.4,0.6l0,0l-3.7,18.2C443.6,339.9,443.3,340,443.1,340z"/>
			</g>
			<g id="Group_265">
				<path id="Path_418" class="st107" d="M478.2,312.8L478.2,312.8l-16.5-0.6c-0.3,0-0.5-0.2-0.5-0.5s0.2-0.5,0.5-0.5l16.5,0.6
					c0.3,0,0.5,0.2,0.5,0.5S478.5,312.8,478.2,312.8L478.2,312.8z"/>
			</g>
		</g>
		<g id="Group_270">
			
				<linearGradient id="Path_419_1_" gradientUnits="userSpaceOnUse" x1="671.4862" y1="576.7194" x2="672.4862" y2="576.7194" gradientTransform="matrix(50.2296 0 0 -62.2844 -33619.9727 36342.0938)">
				<stop  offset="0" style="stop-color:#FDE1A7"/>
				<stop  offset="1" style="stop-color:#F9A144"/>
			</linearGradient>
			<path id="Path_419" class="st109" d="M157.2,406.6c1.6,1.3,2,3.6,0.8,5.3l-19.4,39.2c-1.2,1.7-3.6,2-5.3,0.8l0,0l-23.1-17.1
				c-1.7-1.3-2.1-3.7-1-5.5c3.4-6.3,7.2-12.5,11.4-18.4c5.5-7.5,13.3-19.2,13.3-19.2c1.3-1.7,3.2-1.8,5.1-0.4L157.2,406.6z"/>
			<g id="Group_267">
				<path id="Path_420" class="st107" d="M109.5,435.1c-0.4,0-0.7-0.3-0.7-0.8c0-0.3,0.2-0.6,0.5-0.7l30.4-11.5l-3.7-31.5
					c0-0.4,0.2-0.8,0.7-0.8c0.4,0,0.8,0.2,0.8,0.7l3.8,32.1c0,0.3-0.2,0.7-0.5,0.8l-30.9,11.7C109.7,435.1,109.6,435.1,109.5,435.1z
					"/>
			</g>
			<g id="Group_268">
				<path id="Path_421" class="st107" d="M136.3,453.1c-0.2,0-0.4-0.2-0.5-0.4l-4.2-21.5c-0.1-0.3,0.1-0.5,0.4-0.6
					c0.3-0.1,0.5,0.1,0.6,0.4l0,0l4.2,21.5C136.8,452.8,136.7,453.1,136.3,453.1C136.4,453.1,136.4,453.1,136.3,453.1
					C136.4,453.1,136.3,453.1,136.3,453.1z"/>
			</g>
			<g id="Group_269">
				<path id="Path_422" class="st107" d="M144,414.5c-0.3,0-0.5-0.2-0.5-0.5c0-0.2,0.1-0.4,0.3-0.5l14.6-4.8c0.3-0.1,0.5,0,0.6,0.3
					s0,0.5-0.3,0.6l0,0l-14.6,4.8C144.1,414.5,144.1,414.5,144,414.5z"/>
			</g>
		</g>
		<circle id="Ellipse_20" class="st102" cx="120.5" cy="459.7" r="3.5"/>
		<circle id="Ellipse_21" class="st102" cx="287.1" cy="399.1" r="3.5"/>
		<circle id="Ellipse_22" class="st102" cx="421.9" cy="330" r="3.5"/>
		<circle id="Ellipse_23" class="st102" cx="495.7" cy="218.2" r="3.5"/>
		<g id="Group_271">
			<path id="Path_423" class="st7" d="M482.9,169c-0.5,0-1-0.4-1-1c-0.1-3.7-1-6.3-2.9-8.1c-3.8-3.6-11.6-3.4-21.4-3L455,157
				c-3.8,0.1-6.2-0.6-7.6-2.2c-1.9-2.2-1.4-5.4-0.9-8.9c0.5-3.1,1-6.3-0.2-9c-3.5-7.9-23.8-7.7-40.8-2.9
				c-17.5,4.9-31.1,10.3-31.2,10.3c-0.5,0.2-1.1,0-1.3-0.6c-0.2-0.5,0-1.1,0.6-1.3c0.1-0.1,13.8-5.4,31.4-10.4
				c14.2-4,38.5-6.4,43.1,4.1c1.4,3.2,0.8,6.9,0.4,10.1c-0.5,3.1-0.9,5.8,0.4,7.3c1,1.1,3,1.6,6.1,1.5l2.6-0.1
				c10.2-0.3,18.3-0.6,22.8,3.6c2.2,2.1,3.4,5.2,3.5,9.5C483.9,168.5,483.5,169,482.9,169L482.9,169z"/>
		</g>
		<g id="Group_272">
			<path id="Path_424" class="st7" d="M488.6,160.6c-0.4,0-0.7-0.3-0.8-0.7c-0.2-6.8-3-10-9.6-11.1c-0.4-0.1-0.7-0.5-0.6-0.9
				s0.5-0.7,0.9-0.6c7.3,1.2,10.7,5,10.9,12.5C489.3,160.3,489,160.6,488.6,160.6L488.6,160.6z"/>
		</g>
		<g id="Group_273">
			<path id="Path_425" class="st7" d="M379.3,133.7c-0.4,0-0.8-0.3-0.8-0.7c0-0.2,0.1-0.5,0.3-0.6c2.2-1.5,13.7-7.5,26.7-7
				c0.4,0,0.7,0.4,0.7,0.8c0,0.4-0.4,0.7-0.8,0.7l0,0c-9.1-0.2-18,2.2-25.8,6.7C379.6,133.7,379.5,133.7,379.3,133.7z"/>
		</g>
		<g id="Group_274">
			<path id="Path_426" class="st7" d="M405.5,151.6c-0.1,0-0.2,0-0.3-0.1c-2.6-1.1-9.9-0.9-12.3-0.8c-0.4,0-0.8-0.3-0.8-0.7
				s0.3-0.8,0.7-0.8c0.1,0,9.6-0.5,12.9,0.9c0.4,0.2,0.6,0.6,0.4,1C406,151.4,405.8,151.6,405.5,151.6L405.5,151.6z"/>
		</g>
		<g id="Group_275">
			<path id="Path_427" class="st7" d="M474.7,290h-0.1c-0.5-0.1-0.9-0.6-0.9-1.1c0.7-5.9,6.9-8.6,12.9-11.2
				c6.7-3,13.1-5.8,13.2-12.5c0.1-4.8-3.9-7.2-8.5-10c-4.5-2.8-9.6-5.9-10.4-12c-0.9-7.2,4.4-13.2,8.7-18c2.3-2.6,4.5-5.1,5.1-7.1
				c0.1-0.5,0.7-0.9,1.2-0.7c0.5,0.1,0.9,0.7,0.7,1.2l0,0c-0.7,2.5-2.9,5-5.5,7.9c-4.2,4.8-8.9,10.1-8.2,16.4
				c0.6,5.1,4.9,7.7,9.4,10.5c4.7,2.9,9.5,5.9,9.4,11.8c-0.1,8-7.7,11.4-14.4,14.3c-5.7,2.5-11.1,4.9-11.7,9.6
				C475.6,289.6,475.2,290,474.7,290z"/>
		</g>
		<g id="Group_276">
			<path id="Path_428" class="st7" d="M469.2,252.9c-0.2,0-0.5-0.1-0.6-0.3c-5.5-7.9-2.7-15.3-0.5-18.1c0.3-0.3,0.7-0.4,1.1-0.1
				s0.4,0.7,0.1,1.1c-0.1,0.1-5.7,7.4,0.5,16.4c0.2,0.3,0.2,0.8-0.2,1C469.5,252.8,469.4,252.9,469.2,252.9L469.2,252.9z"/>
		</g>
		<g id="Group_277">
			<path id="Path_429" class="st7" d="M370.5,385.4c-0.6,0-1-0.4-1-1c0-0.3,0.2-0.7,0.5-0.8c2.9-1.8,8-2.3,13.9-2.9
				c5-0.5,10.6-1,15.1-2.5c7.4-2.4,15.5-7.7,16.2-15.1c0.4-4.9-1.9-7.2-4.3-9.6c-2-2.1-4.1-4.2-4.3-7.8c-0.4-9.3,14.3-16.1,15-16.4
				c0.5-0.2,1.1,0,1.3,0.5c0.2,0.5,0,1.1-0.5,1.3l0,0c-4.9,2.2-14.1,8.1-13.8,14.5c0.1,2.8,1.8,4.5,3.7,6.5
				c2.5,2.5,5.3,5.4,4.8,11.2c-0.7,8.4-9.5,14.2-17.5,16.9c-4.7,1.6-10.5,2.1-15.5,2.6c-5.4,0.5-10.5,1-13,2.6
				C370.9,385.3,370.7,385.4,370.5,385.4z"/>
		</g>
		<g id="Group_278">
			<path id="Path_430" class="st7" d="M399.2,344.4h-0.1c-0.5-0.1-0.9-0.6-0.9-1.1c1.3-11.4,9.4-15.9,12.5-16.7
				c0.5-0.1,1.1,0.2,1.2,0.7s-0.2,1.1-0.7,1.2c-2.5,0.7-9.9,4.8-11,15C400.2,344,399.7,344.4,399.2,344.4z"/>
		</g>
		<g id="Group_279">
			<path id="Path_431" class="st7" d="M285.9,400.3c-2.8,0-9.9-1.3-25.4-10.1c-2-1.2-4.1-2.4-6.2-3.6c-20.6-12-44-25.6-70.9-23.3
				c-19.9,1.7-29.3,13.4-32.4,17.3c-0.3,0.4-0.5,0.7-0.7,0.9c-0.4,0.4-1,0.5-1.4,0.1s-0.5-1-0.1-1.4c0.2-0.2,0.4-0.5,0.7-0.8
				c3.2-4,13.1-16.2,33.8-18c27.5-2.4,51.2,11.4,72.1,23.6c2.1,1.2,4.1,2.4,6.2,3.6c19.7,11.3,25.2,9.8,25.3,9.8
				c0.5-0.2,1.1,0.1,1.3,0.6c0.2,0.5-0.1,1.1-0.6,1.3C286.9,400.2,286.4,400.3,285.9,400.3z"/>
		</g>
		<g id="Group_280">
			<path id="Path_432" class="st7" d="M145.8,367c-0.4,0-0.7-0.3-0.7-0.8c0-0.2,0.1-0.3,0.2-0.5c2.7-3.4,10.7-11.3,25.2-10
				c0.4,0,0.7,0.4,0.7,0.8s-0.4,0.7-0.8,0.7l0,0c-13.8-1.2-21.3,6.2-23.9,9.5C146.3,366.9,146,367,145.8,367z"/>
		</g>
		<g id="Group_281">
			<path id="Path_433" class="st7" d="M118,501.2c-0.5,0-1-0.4-1-0.9c-1.3-18.6,0.9-34.9,2.5-40.8c0.2-0.5,0.7-0.8,1.3-0.7
				c0.5,0.2,0.8,0.7,0.7,1.2c-1.6,5.8-3.7,21.9-2.5,40.2C119,500.7,118.6,501.2,118,501.2L118,501.2z"/>
		</g>
		<g id="Group_282">
			<path id="Path_434" class="st7" d="M164.4,566.1c-0.1,0-0.3,0-0.4-0.1c-0.3-0.1-8-3.4-8.9-9c-0.6-3.6,1-6,2.6-8.2
				c1-1.4,1.8-2.8,2.4-4.4c2.1-6.6-2.4-10.2-4.4-11c-0.5-0.2-0.7-0.8-0.5-1.3s0.8-0.7,1.3-0.5c5.1,2.4,7.5,8.2,5.5,13.5
				c-0.6,1.8-1.5,3.4-2.7,5c-1.5,2.2-2.7,3.9-2.3,6.8c0.7,4.4,7.6,7.4,7.7,7.5c0.5,0.2,0.7,0.8,0.5,1.3
				C165.2,565.8,164.8,566.1,164.4,566.1L164.4,566.1z"/>
		</g>
		<g id="Group_283">
			<path id="Path_435" class="st7" d="M169.1,551.6c-0.4,0-0.7-0.3-0.7-0.8c0-0.2,0.1-0.4,0.2-0.5c1.9-2.1,2.8-5,2.4-7.8
				c-0.4-3.1-2-5.3-3-5.9c-0.4-0.2-0.5-0.7-0.3-1c0.2-0.4,0.7-0.5,1-0.3l0,0c1.4,0.9,3.2,3.7,3.7,7s-0.5,6.6-2.8,9
				C169.5,551.5,169.3,551.6,169.1,551.6z"/>
		</g>
		<path id="Path_436" class="st102" d="M365.3,146.5l6.2-10.2l4.9,14.6L365.3,146.5z"/>
		
			<linearGradient id="Path_437_1_" gradientUnits="userSpaceOnUse" x1="669.9048" y1="576.8932" x2="671.0098" y2="576.8932" gradientTransform="matrix(46.087 0 0 -60.2966 -30782.0391 35319.1211)">
			<stop  offset="0" style="stop-color:#FDE1A7"/>
			<stop  offset="1" style="stop-color:#F9A144"/>
		</linearGradient>
		<path id="Path_437" class="st110" d="M137.6,510.5l-34-6.2c-3.3-0.3-5.5,1.1-5.9,4c0,0-0.5,5.1-1.2,11.8c0.7,1,1.5,1.9,2.3,2.9
			c12.6,15.8,27.3,29.8,43.8,41.6l-0.5-48.3C142.1,513.7,141.2,511.4,137.6,510.5z"/>
		<g id="Group_284">
			<path id="Path_438" class="st107" d="M123.9,532.9c-0.6,0-1-0.4-1-1c0-0.2,0.1-0.5,0.3-0.7l17.1-19.4c0.4-0.4,1-0.5,1.4-0.1
				c0.4,0.4,0.5,1,0.1,1.4l-17.1,19.4C124.5,532.8,124.2,532.9,123.9,532.9z"/>
		</g>
		<path id="Path_439" class="st107" d="M126.4,544l-25.3-39.9c-0.3-0.5-0.9-0.6-1.4-0.3s-0.6,0.9-0.3,1.4l24.9,39.3l-2.5,3.3
			c0.5,0.5,1,0.9,1.5,1.4l3-4C126.6,544.8,126.6,544.4,126.4,544z"/>
	</g>
</g>
</svg>
