<?xml version="1.0" encoding="utf-8"?>
<!-- Generator: Adobe Illustrator 25.0.0, SVG Export Plug-In . SVG Version: 6.00 Build 0)  -->
<svg version="1.1" id="Layer_1" xmlns="http://www.w3.org/2000/svg" xmlns:xlink="http://www.w3.org/1999/xlink" x="0px" y="0px"
	 viewBox="0 0 1366 768" style="enable-background:new 0 0 1366 768;" xml:space="preserve">
<style type="text/css">
	.st0{fill-rule:evenodd;clip-rule:evenodd;fill:#D168FF;}
	.st1{fill-rule:evenodd;clip-rule:evenodd;fill:#E8CCCA;}
	.st2{fill:#E8CCCA;}
	.st3{fill-rule:evenodd;clip-rule:evenodd;fill:#7976C9;}
	.st4{fill-rule:evenodd;clip-rule:evenodd;fill:#DB9094;}
	.st5{fill-rule:evenodd;clip-rule:evenodd;fill:#3F378D;}
	.st6{fill-rule:evenodd;clip-rule:evenodd;fill:#6B0DC5;}
	.st7{fill-rule:evenodd;clip-rule:evenodd;fill:#EBA6A9;}
	.st8{fill-rule:evenodd;clip-rule:evenodd;fill:#0B233F;}
	.st9{fill-rule:evenodd;clip-rule:evenodd;fill:#49546A;}
	.st10{fill:#49546A;}
	.st11{fill-rule:evenodd;clip-rule:evenodd;fill:#A6A4F5;}
	.st12{fill-rule:evenodd;clip-rule:evenodd;fill:#FFFFFF;}
	.st13{fill-rule:evenodd;clip-rule:evenodd;fill:#E6E6E6;}
	.st14{fill:#00B1FD;}
	.st15{fill:#F06A60;}
	.st16{fill:#EAB436;}
	.st17{fill:#79991C;}
	.st18{fill-rule:evenodd;clip-rule:evenodd;fill:#FAFAFA;}
	.st19{fill-rule:evenodd;clip-rule:evenodd;fill:#B1B0FC;}
	.st20{fill-rule:evenodd;clip-rule:evenodd;fill:#E1E2FF;}
	.st21{fill:#E1E2FF;}
	.st22{fill:#B3B3B3;}
	.st23{fill-rule:evenodd;clip-rule:evenodd;fill:#E6ECFF;}
</style>
<g id="Group_476" transform="translate(-5046.926 -10547)">
	<g id="Group_475">
		<g id="Group_474">
			<g id="Group_473">
				<g id="Group_472">
					<path id="Path_251" class="st0" d="M5532,10996.6c-3.3-28.9,5.6-59.7,38.9-79.5c30.6-18.2,31.9-23.6,32.3-90.2
						c0.7-127.3,178.6-152.4,299.9-106c159.5,61.1,133.9,135.5,40.8,222.2c-79.9,74.4,77.5,208.2-56,244.1
						c-62.9,16.9-220.3,14.2-285.7,8.2c-52.2-4.8-44.2-48.7-40.7-89.5C5567.1,11039.4,5538.6,11054.5,5532,10996.6L5532,10996.6z"/>
					<path id="Path_252" class="st1" d="M5634.9,11050.3h104.9c4.4,0,8,3.6,8,8v1.5c0,4.4-3.6,8-8,8h-115c-2.9,0-6-1.2-6.9-4
						l-36.1-109.5c-1.4-4.2-0.9-8.7,2.9-11l1.3-0.8c3.8-2.2,9.7-1.3,10.9,2.9l31,100.7C5628.8,11049,5631.9,11050.2,5634.9,11050.3
						L5634.9,11050.3z"/>
					<path id="Path_253" class="st2" d="M5764.5,10996.7v173.9h-8.5v-173.9H5764.5z M5833.8,10996.7v173.9h-8.5v-173.9H5833.8z"/>
					<path id="Path_254" class="st3" d="M5695.2,10973.6l3.2,2.9l7.9-19l-13.9-11.5c0.1,3.5-0.4,7.1-1.4,10.4l8.6,6.7
						L5695.2,10973.6L5695.2,10973.6z"/>
					<path id="Path_255" class="st4" d="M5706.2,10957.5l8,7c5.5,4.8,42.5,5.6,50.6,5.7c8.2,0.1,11.5,3.1,11.5,10.6h-1.2
						c-1.5-3.4-4.8-4.9-10.6-5c-8.1-0.1-51.5-0.8-57-5.7l-4.8-4.2L5706.2,10957.5L5706.2,10957.5z"/>
					<path id="Path_256" class="st5" d="M5622.1,11010.7c12.2,0,67.9,7.9,101.4,15.4c26.6,6,25.4,13.4,27.4,27c1.7,29,3.4,58,5.1,87
						h-15.2c-4.2-27.7-15.7-55.3-19.9-83C5673,11057,5609.7,11073.7,5622.1,11010.7L5622.1,11010.7z"/>
					<path id="Path_257" class="st6" d="M5622.1,11010.7c22.7-67.2,14.9-85.8,52.7-100.9c7.9,1.8,13.9,5.1,18.4,9.4
						c-6.7,25.1,2.7,19.2-2.2,37.3l8.6,6.7l-7.9,19l-7.4-5.2c-6.2-4.8-10,29.4-13.8,39.5
						C5649.9,11013.6,5642.6,11013.5,5622.1,11010.7L5622.1,11010.7z"/>
					<path id="Path_258" class="st7" d="M5674.8,10909.8c5.9,3.4,12.5,6,18.4,9.4c1.8-3.1,3.5-6.1,5.3-9.2
						c11.6,3.1,20.9-5,24.5-11.3c5.9,3.4,3.1-4.6,2.7-6.1c0.5-1.7,0.8-3.5,1-5.2l-0.1-0.1c-0.2,0.1-0.2-0.1-0.5,0
						c0,0-3.1-4.9-3.4-5.3c-0.3,1.3-0.7,2.6-1,3.8c-6.9-1-6.9-5.3-8.8-7.2c-2.2,8.1-3.5,10.7-14.2,11.8l0,0.3l-0.1-0.3
						c-1.5,0.1-3.1,0.2-4.9,0.3c3.9-7.1,1.3-10.5-2.8-12.5c-2.2,1.2-5.3,17.4-10.7,24.3L5674.8,10909.8L5674.8,10909.8z"/>
					<path id="Path_259" class="st4" d="M5696.8,10912.7c0.1-0.2,1.5-2.6,1.6-2.7c-2.6-7.3-3.7-10.2-5-17.8
						C5693.5,10900,5696,10909.6,5696.8,10912.7L5696.8,10912.7z"/>
					<path id="Path_260" class="st8" d="M5691.1,10854.7c-32.8-47.4-47.2,23.2-69.8,29.3c44.4,20.6,47.8-41.1,63.3-25.6
						c-15.5,8.9-14.4,25.7-4.3,44.3c10.3-12.8,12.2-18.2,10.7-20.8c3.2,1.6,4.1,6.6,2.8,8.9c16.3-0.5,17.4-3.5,19.2-12.1
						c1.9,1.9,2,6.2,8.8,7.2c0.3-1.3,0.7-2.6,1-3.9c1.1,1.9,2.2,3.8,3.2,5.6C5745.7,10876.3,5720,10842.5,5691.1,10854.7
						L5691.1,10854.7z"/>
					<path id="Path_261" class="st7" d="M5699.5,10963.2l8,7c5.5,4.8,48.9,5.6,57,5.7c8.2,0.1,11.5,3.1,11.5,10.6h-10
						c0-2.8-9-2.7-10.2,0h-36.5c-11.1,0-18.5,2.8-27.7-4.9L5699.5,10963.2L5699.5,10963.2z"/>
					<path id="Path_262" class="st2" d="M5866.7,10999.2h-146.2v-8.5h146.2V10999.2z"/>
					<path id="Path_263" class="st7" d="M5740.7,11140v5.4c14.7,8.5,19.9,22.5,34.8,20.2c0.7,0,1.3-0.3,1.8-0.7
						c-7.5-4.3-20.9-16-20.9-24.9C5751.2,11140,5746,11140,5740.7,11140L5740.7,11140z"/>
					<path id="Path_264" class="st9" d="M5746.7,11170.6v-10.6c1.3,0.3,8.9,5.8,12.2,7.3c13.8,6.4,26.8,2.4,18.4-2.4
						c-0.5,0.4-1.2,0.7-1.8,0.7c-14.9,2.2-20.2-11.7-34.8-20.2l0,25.2L5746.7,11170.6L5746.7,11170.6z"/>
					<path id="Path_265" class="st10" d="M5608.9,11170.7l26.8-112.6c1.7-7,5.8-13.2,11.7-17.3c12.7-8.9,29.6-8.9,42.3,0
						c5.9,4.2,10,10.3,11.7,17.3l26.8,112.6h-5.8l-26.4-111.3c-1.4-5.7-4.8-10.7-9.5-14.1c-10.7-7.5-25-7.5-35.7,0
						c-4.8,3.4-8.2,8.4-9.5,14.1l-26.4,111.3H5608.9z"/>
					<path id="Path_266" class="st11" d="M5743.8,10735.4h162.8v222.4h-162.8V10735.4z"/>
					<path id="Path_267" class="st12" d="M5748.1,10739.7h154.2v213.8h-154.2V10739.7z"/>
					<path id="Path_268" class="st13" d="M5902.3,10792.3v1.7h-154.2v-1.7H5902.3z M5902.3,10845.7v1.7h-154.2v-1.7L5902.3,10845.7z
						 M5902.3,10899.1v1.7h-154.2v-1.7H5902.3z"/>
					<path id="Path_269" class="st10" d="M5772,10754.5c6.3,0,11.4,5.1,11.4,11.4c0,6.3-5.1,11.4-11.4,11.4
						c-6.3,0-11.4-5.1-11.4-11.4c0-3,1.2-5.9,3.3-8.1C5766,10755.7,5769,10754.5,5772,10754.5z M5778.4,10759.5
						c-3.6-3.6-9.4-3.6-12.9,0c-3.6,3.6-3.6,9.4,0,12.9c3.6,3.6,9.4,3.6,12.9,0c1.7-1.7,2.7-4,2.7-6.5
						C5781.1,10763.5,5780.2,10761.2,5778.4,10759.5z"/>
					<path id="Path_270" class="st14" d="M5767.5,10766.7c-0.5-0.4-0.6-1.1-0.2-1.6c0.4-0.5,1-0.6,1.5-0.3l3.2,2.2l15.2-8.8
						c0.5-0.3,1.2-0.1,1.6,0.4c0.3,0.5,0.1,1.2-0.4,1.6l0,0l-15.7,9.1c-0.4,0.3-0.9,0.2-1.3,0L5767.5,10766.7L5767.5,10766.7z"/>
					<path id="Path_271" class="st13" d="M5798.3,10759.4h80.4c1.1,0,2,0.9,2,2l0,0c0,1.1-0.9,2-2,2h-80.4c-1.1,0-2-0.9-2-2l0,0
						C5796.3,10760.3,5797.2,10759.4,5798.3,10759.4z"/>
					<path id="Path_272" class="st13" d="M5798.3,10768.6h67.1c1.1,0,2,0.9,2,2l0,0c0,1.1-0.9,2-2,2h-67.1c-1.1,0-2-0.9-2-2l0,0
						C5796.3,10769.4,5797.2,10768.6,5798.3,10768.6z"/>
					<path id="Path_273" class="st10" d="M5772,10808.4c6.3,0,11.4,5.1,11.4,11.4c0,6.3-5.1,11.4-11.4,11.4
						c-6.3,0-11.4-5.1-11.4-11.4c0-3,1.2-5.9,3.3-8.1C5766,10809.6,5769,10808.4,5772,10808.4z M5778.4,10813.4
						c-3.6-3.6-9.4-3.6-12.9,0c-3.6,3.6-3.6,9.4,0,12.9c3.6,3.6,9.4,3.6,12.9,0c1.7-1.7,2.7-4,2.7-6.5
						C5781.1,10817.4,5780.2,10815.1,5778.4,10813.4z"/>
					<path id="Path_274" class="st15" d="M5767.5,10820.6c-0.5-0.3-0.7-1-0.4-1.6c0.3-0.5,1-0.7,1.6-0.4c0,0,0.1,0,0.1,0.1l3.2,2.2
						l15.2-8.8c0.5-0.3,1.2-0.1,1.6,0.4c0.3,0.5,0.1,1.2-0.4,1.6l-15.7,9.1c-0.4,0.3-0.9,0.2-1.3,0L5767.5,10820.6L5767.5,10820.6z"
						/>
					<path id="Path_275" class="st13" d="M5798.3,10813.3h80.4c1.1,0,2,0.9,2,2l0,0c0,1.1-0.9,2-2,2h-80.4c-1.1,0-2-0.9-2-2l0,0
						C5796.3,10814.2,5797.2,10813.3,5798.3,10813.3z"/>
					<path id="Path_276" class="st13" d="M5798.3,10822.4h67.1c1.1,0,2,0.9,2,2l0,0c0,1.1-0.9,2-2,2h-67.1c-1.1,0-2-0.9-2-2l0,0
						C5796.3,10823.3,5797.2,10822.4,5798.3,10822.4z"/>
					<path id="Path_277" class="st10" d="M5772,10861.8c6.3,0,11.4,5.1,11.4,11.4c0,6.3-5.1,11.4-11.4,11.4
						c-6.3,0-11.4-5.1-11.4-11.4c0-3,1.2-5.9,3.3-8.1C5766,10863,5769,10861.8,5772,10861.8z M5778.4,10866.8
						c-3.6-3.6-9.4-3.6-12.9,0c-3.6,3.6-3.6,9.4,0,12.9c3.6,3.6,9.4,3.6,12.9,0c1.7-1.7,2.7-4,2.7-6.5
						C5781.1,10870.9,5780.2,10868.5,5778.4,10866.8z"/>
					<path id="Path_278" class="st16" d="M5767.5,10874c-0.5-0.3-0.7-1-0.4-1.6c0.3-0.5,1-0.7,1.6-0.4c0,0,0.1,0,0.1,0.1l3.2,2.2
						l15.2-8.8c0.5-0.3,1.2-0.1,1.6,0.4c0.3,0.5,0.1,1.2-0.4,1.6l-15.7,9.1c-0.4,0.3-0.9,0.2-1.3,0L5767.5,10874L5767.5,10874z"/>
					<path id="Path_279" class="st13" d="M5798.3,10866.7h80.4c1.1,0,2,0.9,2,2l0,0c0,1.1-0.9,2-2,2h-80.4c-1.1,0-2-0.9-2-2l0,0
						C5796.3,10867.6,5797.2,10866.7,5798.3,10866.7z"/>
					<path id="Path_280" class="st13" d="M5798.3,10875.9h67.1c1.1,0,2,0.9,2,2l0,0c0,1.1-0.9,2-2,2h-67.1c-1.1,0-2-0.9-2-2l0,0
						C5796.3,10876.7,5797.2,10875.9,5798.3,10875.9z"/>
					<path id="Path_281" class="st10" d="M5772,10915.7c6.3,0,11.4,5.1,11.4,11.4c0,6.3-5.1,11.4-11.4,11.4
						c-6.3,0-11.4-5.1-11.4-11.4c0-3,1.2-5.9,3.3-8.1C5766,10916.9,5769,10915.7,5772,10915.7z M5778.4,10920.7
						c-3.6-3.6-9.4-3.6-12.9,0c-3.6,3.6-3.6,9.4,0,12.9s9.4,3.6,12.9,0c1.7-1.7,2.7-4,2.7-6.5
						C5781.1,10924.7,5780.2,10922.4,5778.4,10920.7L5778.4,10920.7z"/>
					<path id="Path_282" class="st17" d="M5767.5,10927.9c-0.5-0.3-0.7-1-0.4-1.6c0.3-0.5,1-0.7,1.6-0.4c0,0,0.1,0,0.1,0.1l3.2,2.2
						l15.2-8.8c0.5-0.3,1.2-0.1,1.6,0.4c0.3,0.5,0.1,1.2-0.4,1.6l-15.7,9.1c-0.4,0.3-0.9,0.2-1.3,0L5767.5,10927.9L5767.5,10927.9z"
						/>
					<path id="Path_283" class="st13" d="M5798.3,10920.6h80.4c1.1,0,2,0.9,2,2l0,0c0,1.1-0.9,2-2,2h-80.4c-1.1,0-2-0.9-2-2l0,0
						C5796.3,10921.5,5797.2,10920.6,5798.3,10920.6z"/>
					<path id="Path_284" class="st13" d="M5798.3,10929.7h67.1c1.1,0,2,0.9,2,2l0,0c0,1.1-0.9,2-2,2h-67.1c-1.1,0-2-0.9-2-2l0,0
						C5796.3,10930.6,5797.2,10929.7,5798.3,10929.7z"/>
					<path id="Path_285" class="st9" d="M5785.2,10986.4h-52.7v4.2h55.1l2.5-4.2l25.8-44.7l-3.7-2.1L5785.2,10986.4z"/>
					<path id="Path_286" class="st18" d="M5420.3,10745.9c12.4,0,22.5,10.1,22.5,22.5s-10.1,22.5-22.5,22.5s-22.5-10.1-22.5-22.5
						c0,0,0,0,0,0C5397.8,10756,5407.9,10745.9,5420.3,10745.9C5420.3,10745.9,5420.3,10745.9,5420.3,10745.9L5420.3,10745.9z"/>
					<path id="Path_287" class="st12" d="M5880.6,11120.1c8.4,0,15.2,6.8,15.2,15.2s-6.8,15.2-15.2,15.2c-8.4,0-15.2-6.8-15.2-15.2
						l0,0C5865.4,11126.9,5872.2,11120.1,5880.6,11120.1C5880.6,11120.1,5880.6,11120.1,5880.6,11120.1z"/>
					<path id="Path_288" class="st19" d="M5589.7,10705.8c13.5,0,24.5,11,24.5,24.5s-11,24.5-24.5,24.5c-13.5,0-24.5-11-24.5-24.5
						C5565.2,10716.8,5576.1,10705.8,5589.7,10705.8z"/>
					<path id="Path_289" class="st6" d="M5402.2,10808.5c24.6,18.4,43.5,31,64.5,48.9c45.3,38.4,40.7,85.4,40.7,140.6
						c-6.8-32.7-16.8-67.9-36.9-95.6C5452.4,10877.4,5402.6,10847.8,5402.2,10808.5L5402.2,10808.5z"/>
					<path id="Path_290" class="st6" d="M5502.9,10858.8c2.2-24.4,7.5-42.8,2.5-66.9c-9.6-47-3.1-88.3,6.1-133.1
						C5428.8,10717.5,5488.9,10797.5,5502.9,10858.8z"/>
					<path id="Path_291" class="st20" d="M5484.2,11137h63.6c3.5,0,6.3,2.8,6.3,6.3v5c0,3.5-2.8,6.3-6.3,6.3h-5.4
						c0,0.3,0,0.6-0.1,0.8l-5.7,31.8c-0.8,4.2-3.5,7.8-7.8,7.8h-27.2c-4.3,0-7.3-3.6-7.8-7.8l-4.1-31.8c0-0.3,0-0.6,0-0.8h-5.4
						c-3.5,0-6.3-2.8-6.3-6.3v-5C5477.8,11139.8,5480.7,11137,5484.2,11137z"/>
					<path id="Path_292" class="st6" d="M5630.3,10808.5c-24.6,18.4-43.5,31-64.5,48.9c-45.3,38.4-40.7,85.4-40.7,140.6
						c6.8-32.7,16.8-67.9,36.9-95.6C5580.1,10877.4,5629.9,10847.8,5630.3,10808.5L5630.3,10808.5z"/>
					<path id="Path_293" class="st21" d="M5480.7,10974.3c10.6,33.6,17.7,56.5,22.2,79.9c4.5,23.4,6.4,47.2,6.4,82.8h-3.3
						c0-35.3-1.8-59-6.3-82.2c-4.5-23.2-11.6-46-22.1-79.5L5480.7,10974.3L5480.7,10974.3z M5532.7,10960.9l-0.2,0.9l-14.6,77.5l0,0
						c0.7,13.2,1.3,26.2,1.8,39.3c0.7,19.3,1.1,38.5,1.1,58.4h-3.3c0-20-0.4-39.2-1.1-58.2c-0.5-13.2-1.1-26.4-1.8-39.9l-14.5-77
						l-0.7-2.8c-12.1-52.7-15.9-69.3-59.2-108.3c46.2,30.2,50.9,57.7,62.4,107.6l0.7,2.8l0,0.1l9.9,52.6
						c-1.8-39.9-4.3-78.3-7.9-116.5c-3.9-40.4-9-80.7-15.8-122.5c-3.7-22.8-9-39.6-0.3-61.7c-4.3,23.5-1.3,38.5,3.6,61.1
						c6.8,41.8,12,82.2,15.8,122.7c3.9,40.5,6.5,81.1,8.2,123.4l0,0l0.3,5.2l12.1-64.4l0-0.1l0.2-0.9c9.1-47.1,14.2-73.6,52.8-104.9
						C5561.8,10882,5549.7,10877.1,5532.7,10960.9L5532.7,10960.9z"/>
					<path id="Path_294" class="st20" d="M5457,11111.1c0.2-1,11-19.1,11-19.1c24.6-45.1-15.9-64.2-31.1-26.8
						c-7.2,17.8,3.9,33-4.3,33.1c-10.8,0.2-9.4,11-6.3,24.9c11.2,50.2,31.7,33.6,32.6,11.2
						C5459.3,11126.6,5455.6,11118.3,5457,11111.1L5457,11111.1z"/>
					<path id="Path_295" class="st22" d="M5444.3,11137.6c-1.1,19.1-0.4,38.2,1.9,57.2l-2.6,0.3c-2.3-19.1-3-38.4-1.9-57.6
						c1.1-19.1,3.9-38,8.4-56.6C5447.9,11097.7,5445.4,11117.7,5444.3,11137.6L5444.3,11137.6z"/>
					<path id="Path_296" class="st23" d="M5953.2,10705c21.5,0,38.9,17.4,38.9,38.9s-17.4,38.9-38.9,38.9s-38.9-17.4-38.9-38.9
						C5914.3,10722.4,5931.7,10705,5953.2,10705z"/>
				</g>
			</g>
		</g>
	</g>
</g>
</svg>
