<?xml version="1.0" encoding="utf-8"?>
<!-- Generator: Adobe Illustrator 25.0.0, SVG Export Plug-In . SVG Version: 6.00 Build 0)  -->
<svg version="1.1" id="Layer_1" xmlns="http://www.w3.org/2000/svg" xmlns:xlink="http://www.w3.org/1999/xlink" x="0px" y="0px"
	 viewBox="0 0 612 792" style="enable-background:new 0 0 612 792;" xml:space="preserve">
<style type="text/css">
	.st0{clip-path:url(#SVGID_2_);}
	.st1{fill:#66439A;}
	.st2{fill:#FBFCFD;}
	.st3{fill:#A773B1;}
</style>
<g>
	<g>
		<defs>
			<rect id="SVGID_1_" x="106" y="184.4" width="400" height="400"/>
		</defs>
		<clipPath id="SVGID_2_">
			<use xlink:href="#SVGID_1_"  style="overflow:visible;"/>
		</clipPath>
		<g id="g14" class="st0">
			<g id="g20" transform="translate(2.5 2.5)">
				<path id="path22" class="st1" d="M482.4,381.9c0,98.8-80.1,178.9-178.9,178.9s-178.9-80.1-178.9-178.9S204.7,203,303.5,203
					S482.4,283.1,482.4,381.9"/>
			</g>
			<g id="g24" transform="translate(12.491 27.5)">
				<path id="path26" class="st2" d="M293.5,397.4c-26.1-0.1-52.1-3-77.6-8.6c-5.9-1.2-17.2,0-17.2,17.2c0,34.5,39.6,77.6,94.8,77.6
					s94.8-43.1,94.8-77.6c0-17.2-11.3-18.4-17.2-17.2C345.6,394.4,319.6,397.3,293.5,397.4"/>
			</g>
			<g id="g28" transform="translate(1.781 1.455)">
				<path id="path30" class="st3" d="M290,228c-9-25.6-37.1-39-62.6-30c-15,5.3-26.4,17.5-30.8,32.6c-13-9.1-29.5-11.3-44.5-6.2
					c-25.6,9-39,37.1-30,62.6c1.3,3.5,2.9,6.9,5,10.1c20.5,37.7,79.8,64.2,115.8,64.5c27.7-22.9,57.3-80.7,49.6-122.9
					C292.1,235.2,291.2,231.5,290,228"/>
			</g>
			<g id="g32" transform="translate(25.001 1.455)">
				<path id="path34" class="st3" d="M295.2,228c9-25.6,37-39,62.6-30c15,5.3,26.5,17.5,30.9,32.7c22.1-15.6,52.7-10.4,68.3,11.7
					c11.5,16.3,12,38.1,1.2,54.9c-20.5,37.7-79.8,64.2-115.8,64.5c-27.8-22.8-57.3-80.6-49.6-122.9C293.1,235.2,294,231.5,295.2,228
					"/>
			</g>
		</g>
	</g>
</g>
</svg>
