<?xml version="1.0" encoding="utf-8"?>
<svg version="1.1" id="Layer_1" xmlns="http://www.w3.org/2000/svg" xmlns:xlink="http://www.w3.org/1999/xlink" x="0px" y="0px"
	 viewBox="0 0 792 612" style="enable-background:new 0 0 792 612;" xml:space="preserve">
<style type="text/css">
	.st0{fill:#66449B;}
</style>
<path id="Path_1" class="st0" d="M540.3,295.7c-5.8-8.1-14.3-12.9-23.3-12.9h-59.1v-46.5c0-10.2-6.9-18.5-15.4-18.5
	s-15.4,8.3-15.4,18.5l0,0h-61.6c0-10.2-6.9-18.5-15.4-18.5c-8.5,0-15.4,8.3-15.4,18.5l0,0v46.5h-59.1c-9,0-17.4,4.6-23.3,12.9l0,0
	l-4.3,6c-33.4,46.5-51.7,105.9-51.7,167.4c-0.2,20.4,13.7,37.1,30.7,37.1l0,0h338.3c17-0.2,30.9-16.7,30.7-37.1l0,0
	c0.2-61.3-18.2-120.7-51.6-167.4L540.3,295.7z M365.5,273.1H427v9.8h-61.6V273.1z M227.1,468.9c0-52.3,15.6-103,44.2-142.8l4.3-6
	h241.5l4.3,6c28.4,39.8,44.2,90.3,44.2,142.8H227.1z"/>
<path id="Path_2" class="st0" d="M396.3,106.2c-74.2,0-199.9,15.6-199.9,74.4v37.1c0,20.4,13.7,36.9,30.7,37.1h23.1
	c19.9,0.2,36.6-18.1,38.4-41.9c35.4-9.8,71.5-14.6,107.7-14.4c36.2,0,72.3,4.8,107.7,14.4c1.8,23.8,18.2,42.1,38.1,42.3h23.3
	c17-0.2,30.9-16.7,30.7-37.1l0,0V181C596.2,122,470.6,106.2,396.3,106.2z M565.4,217.9h-23c-4.3,0-7.7-4.2-7.7-9.2l0,0v-11.5
	c0-1.2,0-2.5,0-3.7c-0.2-1.2-0.5-2.1-1-3.3c0-1.2-1.1-2.1-1.4-2.9c-0.6-1-1.3-1.7-1.9-2.5c-0.6-0.8-1.4-1.5-2.2-2.1
	c-0.8-0.6-1.8-1.2-2.7-1.7l0,0c-41.6-13.1-84.4-19.2-127.4-18.6c-42.9-0.6-85.8,5.6-127.4,18.6l0,0c-1,0.4-1.9,1-2.7,1.7
	c-0.8,0.4-1.6,1.2-2.2,1.7l-1.9,2.9c-1.1,1.7-2.1,3.8-2.4,6.2c0,1.2,0,2.5,0,3.7v10.4c0,5.2-3.4,9.2-7.7,9.2l0,0h-26.4v-34.8
	c5.5-13.8,66.7-38.4,169.2-38.4s163.9,24.8,169.2,37.1v37.3H565.4z M396.3,329.4c-30.1-0.4-54.6,28.4-55,64.4
	c-0.3,35.9,23.8,65.4,53.8,65.7c30.1,0.4,54.6-28.4,55-64.4c0-0.2,0-0.4,0-0.6C450.3,358.8,426.2,329.6,396.3,329.4z M396.3,422.4
	c-12.9,0.2-23.5-12.1-23.6-27.5c-0.2-15.4,10.1-28.1,23-28.3c12.9-0.2,23.5,12.1,23.6,27.5c0,0.2,0,0.2,0,0.4
	C419.3,409.7,409,422.2,396.3,422.4z"/>
</svg>
