<?xml version="1.0" encoding="utf-8"?>
<!-- Generator: Adobe Illustrator 25.0.0, SVG Export Plug-In . SVG Version: 6.00 Build 0)  -->
<svg version="1.1" id="Layer_1" xmlns="http://www.w3.org/2000/svg" xmlns:xlink="http://www.w3.org/1999/xlink" x="0px" y="0px"
	 viewBox="0 0 1366 768" style="enable-background:new 0 0 1366 768;" xml:space="preserve">
<style type="text/css">
	.st0{fill:#D168FF;}
	.st1{fill:#D168FF;stroke:#000000;stroke-miterlimit:10;}
	.st2{fill:#6B0DC5;}
</style>
<g id="Untitled-1" transform="translate(618.567 1032.035)">
	<path id="Path_14" class="st0" d="M367.7-607c-147,55.5-36,167.9-24.5,182.1c36.2,42.2,78.1,54.9,91.2,115.3
		c15.1,69.7-101,113.2-91.2,182.8c5.4,38.1,91.2,89.7,91.2,89.7s21,19.1,49.5,24.3c35.2,6.4,81.6,9.1,106.5,10.4
		c165.3,8.7,291.1-82,335.3-114.9c36.2-26.9,57.3-42.5,79.7-72.6c76.8-102.9,103.8-287.4,15.5-423.3
		c-90.6-139.5-276.8-188.3-347.5-127c-34.1,29.6-78.4,35.3-136.8,98.1C502.6-605.4,427.6-631.1,367.7-607z"/>
	<path id="Path_15" class="st1" d="M880.3-458.3"/>
</g>
<ellipse id="Ellipse_33" class="st2" cx="271" cy="158.8" rx="21" ry="21.5"/>
<path id="Path_446" class="st2" d="M-64.1,399.9c83.5,97,109.3,251.6,105.2,286.8C38.7,706.8,26.3,730,26.3,730L-39,813l-56.3,38.8
	l31.2-387V399.9z"/>
<circle id="Ellipse_29" class="st0" cx="-1.5" cy="203.8" r="61.5"/>
<circle id="Ellipse_32" class="st0" cx="572.5" cy="203.8" r="23.5"/>
<ellipse id="Ellipse_48" class="st2" cx="483" cy="64.8" rx="61" ry="62.5"/>
</svg>
