<?xml version="1.0" encoding="utf-8"?>
<svg version="1.1" id="Layer_1" xmlns="http://www.w3.org/2000/svg" xmlns:xlink="http://www.w3.org/1999/xlink" x="0px" y="0px"
	 viewBox="0 0 1366 768" style="enable-background:new 0 0 1366 768;" xml:space="preserve">
<style type="text/css">
	.st0{fill:#D168FF;}
	.st1{fill:#D168FF;stroke:#000000;stroke-miterlimit:10;}
	.st2{fill:#6B0DC5;stroke:#000000;stroke-miterlimit:10;}
	.st3{fill:#6B0DC5;}
	.st4{opacity:0.55;fill:#6B0DC5;enable-background:new    ;}
</style>
<ellipse id="Ellipse_24" class="st0" cx="780.3" cy="431.4" rx="43" ry="42.5"/>
<g id="Untitled-1" transform="translate(458.567 -64.965)">
	<path id="Path_14" class="st0" d="M354.37,200.02c-147.01,55.45-36.02,167.85-24.54,182.12c36.18,42.17,78.06,54.94,91.16,115.32
		c15.13,69.69-101.02,113.19-91.16,182.79c5.4,38.09,91.16,89.73,91.16,89.73s20.96,19.11,49.48,24.28
		c35.23,6.38,81.58,9.08,106.55,10.39c165.27,8.7,291.05-82.05,335.3-114.9c36.16-26.86,57.28-42.53,79.67-72.57
		c76.75-102.9,103.76-287.36,15.49-423.3C916.94,54.44,730.73,5.57,660.02,66.91c-34.09,29.58-78.42,35.29-136.76,98.06
		C489.25,201.54,414.25,175.86,354.37,200.02z"/>
	<path id="Path_15" class="st1" d="M866.95,348.7"/>
</g>
<g id="left" transform="translate(-224 -39.49)">
	<path id="Path_16" class="st2" d="M586.3,295.4"/>
	<path id="Path_17" class="st3" d="M51,20.9c-14.94,29.71-11.18,85-11.17,85s1.01-14.03,1.18-14c0.09,0.02-0.11,4.35-1.18,21
		c0.46,25.53,0.89,59.64,0.82,100.02c-0.03,19.17-0.16,33.79-0.23,40.98c-0.37,38.52-1.44,124.75-4.12,315
		c5.77,5.62,141.93,133.54,248.17,15c7.18-8.01,82.11-93.77,74.69-191c-7.72-100.98-94.54-86.86-161.72-260
		c-20.38-52.51-30.67-100.92-64.1-125C105.89-11.87,67.48-11.88,51,20.9z"/>
	<path id="Path_18" class="st3" d="M204.17,221.9"/>
	<path id="Path_19" class="st3" d="M171.59,292.9"/>
</g>
<circle id="Ellipse_25" class="st4" cx="147.3" cy="130.9" r="12"/>
<circle id="Ellipse_26" class="st3" cx="111.3" cy="187.9" r="31"/>
<circle id="Ellipse_27" class="st3" cx="705.3" cy="134.9" r="16"/>
<circle id="Ellipse_29" class="st0" cx="61.8" cy="644.4" r="15.5"/>
</svg>
