<?xml version="1.0" encoding="utf-8"?>
<!-- Generator: Adobe Illustrator 25.0.0, SVG Export Plug-In . SVG Version: 6.00 Build 0)  -->
<svg version="1.1" id="Layer_1" xmlns="http://www.w3.org/2000/svg" xmlns:xlink="http://www.w3.org/1999/xlink" x="0px" y="0px"
	 viewBox="0 0 148 107" style="enable-background:new 0 0 148 107;" xml:space="preserve">
<style type="text/css">
	.st0{fill:none;stroke:#6B0DC5;stroke-width:2;stroke-linecap:round;stroke-linejoin:round;stroke-miterlimit:10;}
	.st1{fill:#6B0DC5;stroke:#6B0DC5;stroke-width:2;stroke-linecap:round;stroke-linejoin:round;stroke-miterlimit:10;}
</style>
<g id="icons8-school" transform="translate(1.321 1)">
	<path id="Path_18" class="st0" d="M130.1,29.3L75.6,5L21.2,29.3 M130.1,98.2c0,0-9.1-8.1-27.2-8.1s-27.2,8.1-27.2,8.1V45.5
		c0,0,9.5-8.1,27.5-8.1s27,8.1,27,8.1L130.1,98.2z M21.2,98.2c0,0,9.1-8.1,27.2-8.1s27.2,8.1,27.2,8.1V45.5c0,0-9.5-8.1-27.5-8.1
		s-27,8.1-27,8.1V98.2z"/>
	<path id="Path_19" class="st1" d="M130.1,98.2H84.7c0,0-4.6,4.1-9.1,4.1c-4.5,0-9.1-4.1-9.1-4.1H21.2v-4.1h108.9V98.2z"/>
</g>
</svg>
