<?xml version="1.0" encoding="utf-8"?>
<!-- Generator: Adobe Illustrator 25.0.0, SVG Export Plug-In . SVG Version: 6.00 Build 0)  -->
<svg version="1.1" id="Layer_1" xmlns="http://www.w3.org/2000/svg" xmlns:xlink="http://www.w3.org/1999/xlink" x="0px" y="0px"
	 viewBox="0 0 612 792" style="enable-background:new 0 0 612 792;" xml:space="preserve">
<style type="text/css">
	.st0{fill:#66439A;}
	.st1{fill:#FBFCFD;}
	.st2{fill:#A773B1;}
</style>
<path id="path5359" class="st0" d="M318.9,218.1c-110.4,0-200,89.6-200,200s89.6,200,200,200s200-89.5,200-200
	C518.8,307.7,429.3,218.2,318.9,218.1z"/>
<path id="path4807" class="st1" d="M213.4,444.7c0.1,37.5,20.2,72.1,52.7,90.7c32.7,18.7,72.8,18.7,105.4,0
	c32.6-18.6,52.7-53.2,52.7-90.7"/>
<path id="path4809" class="st2" d="M200.5,378.8c-7.2-0.1-13-6.1-12.9-13.3c0-28.9,23.4-52.3,52.3-52.3s52.3,23.4,52.3,52.3
	c0,7.2-5.8,13.1-13.1,13.1c-7.2,0-13.1-5.8-13.1-13.1c0,0,0,0,0-0.1c0-14.5-11.7-26.2-26.2-26.2s-26.2,11.7-26.2,26.2
	c0.1,7.2-5.7,13.2-12.9,13.3C200.8,378.8,200.7,378.8,200.5,378.8L200.5,378.8z"/>
<path id="path4811" class="st2" d="M358.3,378.8c-7.2-0.1-13-6.1-12.9-13.3c0-28.9,23.4-52.3,52.3-52.3s52.3,23.4,52.3,52.3
	c0,7.2-5.8,13.1-13.1,13.1c-7.2,0-13.1-5.8-13.1-13.1c0,0,0,0,0-0.1c0-14.5-11.7-26.2-26.2-26.2s-26.2,11.7-26.2,26.2
	c0.1,7.2-5.7,13.2-12.9,13.3C358.6,378.8,358.5,378.8,358.3,378.8L358.3,378.8z"/>
</svg>
